<?xml version="1.0" encoding="utf-8" standalone="no"?>
<!DOCTYPE svg PUBLIC "-//W3C//DTD SVG 1.1//EN"
  "http://www.w3.org/Graphics/SVG/1.1/DTD/svg11.dtd">
<svg xmlns:xlink="http://www.w3.org/1999/xlink" width="660.835005pt" height="360.054pt" viewBox="0 0 660.835005 360.054" xmlns="http://www.w3.org/2000/svg" version="1.1">
 <metadata>
  <rdf:RDF xmlns:dc="http://purl.org/dc/elements/1.1/" xmlns:cc="http://creativecommons.org/ns#" xmlns:rdf="http://www.w3.org/1999/02/22-rdf-syntax-ns#">
   <cc:Work>
    <dc:type rdf:resource="http://purl.org/dc/dcmitype/StillImage"/>
    <dc:date>2026-08-05T23:27:07.004561</dc:date>
    <dc:format>image/svg+xml</dc:format>
    <dc:creator>
     <cc:Agent>
      <dc:title>Matplotlib v3.9.2, https://matplotlib.org/</dc:title>
     </cc:Agent>
    </dc:creator>
   </cc:Work>
  </rdf:RDF>
 </metadata>
 <defs>
  <style type="text/css">*{stroke-linejoin: round; stroke-linecap: butt}</style>
 </defs>
 <g id="figure_1">
  <g id="patch_1">
   <path d="M 0 360.054 
L 660.835005 360.054 
L 660.835005 -0 
L 0 -0 
z
" style="fill: #ffffff"/>
  </g>
  <g id="axes_1">
   <g id="patch_2">
    <path d="M 83.838051 163.759719 
L 183.858644 163.759719 
L 183.858644 61.146 
L 83.838051 61.146 
z
" style="fill: #ffffff"/>
   </g>
   <g id="matplotlib.axis_1"/>
   <g id="matplotlib.axis_2"/>
   <g id="patch_3">
    <path d="M 141.511206 80.990159 
Q 146.944533 83.240717 151.086699 84.956458 
" clip-path="url(#pdf865a3754)" style="fill: none; stroke: #0072b2; stroke-width: 1.25; stroke-linecap: round"/>
    <path d="M 148.449563 81.915814 
L 151.086699 84.956458 
L 147.071902 85.241781 
z
" clip-path="url(#pdf865a3754)" style="fill: #0072b2; stroke: #0072b2; stroke-width: 1.25; stroke-linecap: round"/>
   </g>
   <g id="patch_4">
    <path d="M 163.21694 96.329089 
Q 165.467498 101.762415 167.183239 105.904581 
" clip-path="url(#pdf865a3754)" style="fill: none; stroke: #0072b2; stroke-width: 1.25; stroke-linecap: round"/>
    <path d="M 167.468562 101.889785 
L 167.183239 105.904581 
L 164.142596 103.267445 
z
" clip-path="url(#pdf865a3754)" style="fill: #0072b2; stroke: #0072b2; stroke-width: 1.25; stroke-linecap: round"/>
   </g>
   <g id="patch_5">
    <path d="M 167.718951 122.523622 
Q 165.468393 127.956948 163.752652 132.099114 
" clip-path="url(#pdf865a3754)" style="fill: none; stroke: #0072b2; stroke-width: 1.25; stroke-linecap: round"/>
    <path d="M 166.793296 129.461978 
L 163.752652 132.099114 
L 163.467329 128.084318 
z
" clip-path="url(#pdf865a3754)" style="fill: #0072b2; stroke: #0072b2; stroke-width: 1.25; stroke-linecap: round"/>
   </g>
   <g id="patch_6">
    <path d="M 152.380021 144.229356 
Q 146.946695 146.479913 142.804529 148.195655 
" clip-path="url(#pdf865a3754)" style="fill: none; stroke: #0072b2; stroke-width: 1.25; stroke-linecap: round"/>
    <path d="M 146.819325 148.480978 
L 142.804529 148.195655 
L 145.441665 145.155011 
z
" clip-path="url(#pdf865a3754)" style="fill: #0072b2; stroke: #0072b2; stroke-width: 1.25; stroke-linecap: round"/>
   </g>
   <g id="patch_7">
    <path d="M 126.185488 148.731366 
Q 120.752162 146.480809 116.609996 144.765068 
" clip-path="url(#pdf865a3754)" style="fill: none; stroke: #0072b2; stroke-width: 1.25; stroke-linecap: round"/>
    <path d="M 119.247132 147.805711 
L 116.609996 144.765068 
L 120.624792 144.479745 
z
" clip-path="url(#pdf865a3754)" style="fill: #0072b2; stroke: #0072b2; stroke-width: 1.25; stroke-linecap: round"/>
   </g>
   <g id="patch_8">
    <path d="M 104.479754 133.392437 
Q 102.229196 127.95911 100.513455 123.816944 
" clip-path="url(#pdf865a3754)" style="fill: none; stroke: #0072b2; stroke-width: 1.25; stroke-linecap: round"/>
    <path d="M 100.228132 127.831741 
L 100.513455 123.816944 
L 103.554099 126.45408 
z
" clip-path="url(#pdf865a3754)" style="fill: #0072b2; stroke: #0072b2; stroke-width: 1.25; stroke-linecap: round"/>
   </g>
   <g id="patch_9">
    <path d="M 99.977744 107.197904 
Q 102.228301 101.764577 103.944042 97.622411 
" clip-path="url(#pdf865a3754)" style="fill: none; stroke: #0072b2; stroke-width: 1.25; stroke-linecap: round"/>
    <path d="M 100.903399 100.259547 
L 103.944042 97.622411 
L 104.229365 101.637208 
z
" clip-path="url(#pdf865a3754)" style="fill: #0072b2; stroke: #0072b2; stroke-width: 1.25; stroke-linecap: round"/>
   </g>
   <g id="patch_10">
    <path d="M 115.316673 85.492169 
Q 120.75 83.241612 124.892166 81.525871 
" clip-path="url(#pdf865a3754)" style="fill: none; stroke: #0072b2; stroke-width: 1.25; stroke-linecap: round"/>
    <path d="M 120.877369 81.240548 
L 124.892166 81.525871 
L 122.25503 84.566514 
z
" clip-path="url(#pdf865a3754)" style="fill: #0072b2; stroke: #0072b2; stroke-width: 1.25; stroke-linecap: round"/>
   </g>
   <g id="text_1">
    <!-- 1 action: i -&gt; i+1 mod 8 -->
    <g transform="translate(85.673347 172.994954) scale(0.08 -0.08)">
     <defs>
      <path id="DejaVuSans-31" d="M 794 531 
L 1825 531 
L 1825 4091 
L 703 3866 
L 703 4441 
L 1819 4666 
L 2450 4666 
L 2450 531 
L 3481 531 
L 3481 0 
L 794 0 
L 794 531 
z
" transform="scale(0.015625)"/>
      <path id="DejaVuSans-20" transform="scale(0.015625)"/>
      <path id="DejaVuSans-61" d="M 2194 1759 
Q 1497 1759 1228 1600 
Q 959 1441 959 1056 
Q 959 750 1161 570 
Q 1363 391 1709 391 
Q 2188 391 2477 730 
Q 2766 1069 2766 1631 
L 2766 1759 
L 2194 1759 
z
M 3341 1997 
L 3341 0 
L 2766 0 
L 2766 531 
Q 2569 213 2275 61 
Q 1981 -91 1556 -91 
Q 1019 -91 701 211 
Q 384 513 384 1019 
Q 384 1609 779 1909 
Q 1175 2209 1959 2209 
L 2766 2209 
L 2766 2266 
Q 2766 2663 2505 2880 
Q 2244 3097 1772 3097 
Q 1472 3097 1187 3025 
Q 903 2953 641 2809 
L 641 3341 
Q 956 3463 1253 3523 
Q 1550 3584 1831 3584 
Q 2591 3584 2966 3190 
Q 3341 2797 3341 1997 
z
" transform="scale(0.015625)"/>
      <path id="DejaVuSans-63" d="M 3122 3366 
L 3122 2828 
Q 2878 2963 2633 3030 
Q 2388 3097 2138 3097 
Q 1578 3097 1268 2742 
Q 959 2388 959 1747 
Q 959 1106 1268 751 
Q 1578 397 2138 397 
Q 2388 397 2633 464 
Q 2878 531 3122 666 
L 3122 134 
Q 2881 22 2623 -34 
Q 2366 -91 2075 -91 
Q 1284 -91 818 406 
Q 353 903 353 1747 
Q 353 2603 823 3093 
Q 1294 3584 2113 3584 
Q 2378 3584 2631 3529 
Q 2884 3475 3122 3366 
z
" transform="scale(0.015625)"/>
      <path id="DejaVuSans-74" d="M 1172 4494 
L 1172 3500 
L 2356 3500 
L 2356 3053 
L 1172 3053 
L 1172 1153 
Q 1172 725 1289 603 
Q 1406 481 1766 481 
L 2356 481 
L 2356 0 
L 1766 0 
Q 1100 0 847 248 
Q 594 497 594 1153 
L 594 3053 
L 172 3053 
L 172 3500 
L 594 3500 
L 594 4494 
L 1172 4494 
z
" transform="scale(0.015625)"/>
      <path id="DejaVuSans-69" d="M 603 3500 
L 1178 3500 
L 1178 0 
L 603 0 
L 603 3500 
z
M 603 4863 
L 1178 4863 
L 1178 4134 
L 603 4134 
L 603 4863 
z
" transform="scale(0.015625)"/>
      <path id="DejaVuSans-6f" d="M 1959 3097 
Q 1497 3097 1228 2736 
Q 959 2375 959 1747 
Q 959 1119 1226 758 
Q 1494 397 1959 397 
Q 2419 397 2687 759 
Q 2956 1122 2956 1747 
Q 2956 2369 2687 2733 
Q 2419 3097 1959 3097 
z
M 1959 3584 
Q 2709 3584 3137 3096 
Q 3566 2609 3566 1747 
Q 3566 888 3137 398 
Q 2709 -91 1959 -91 
Q 1206 -91 779 398 
Q 353 888 353 1747 
Q 353 2609 779 3096 
Q 1206 3584 1959 3584 
z
" transform="scale(0.015625)"/>
      <path id="DejaVuSans-6e" d="M 3513 2113 
L 3513 0 
L 2938 0 
L 2938 2094 
Q 2938 2591 2744 2837 
Q 2550 3084 2163 3084 
Q 1697 3084 1428 2787 
Q 1159 2491 1159 1978 
L 1159 0 
L 581 0 
L 581 3500 
L 1159 3500 
L 1159 2956 
Q 1366 3272 1645 3428 
Q 1925 3584 2291 3584 
Q 2894 3584 3203 3211 
Q 3513 2838 3513 2113 
z
" transform="scale(0.015625)"/>
      <path id="DejaVuSans-3a" d="M 750 794 
L 1409 794 
L 1409 0 
L 750 0 
L 750 794 
z
M 750 3309 
L 1409 3309 
L 1409 2516 
L 750 2516 
L 750 3309 
z
" transform="scale(0.015625)"/>
      <path id="DejaVuSans-2d" d="M 313 2009 
L 1997 2009 
L 1997 1497 
L 313 1497 
L 313 2009 
z
" transform="scale(0.015625)"/>
      <path id="DejaVuSans-3e" d="M 678 3150 
L 678 3719 
L 4684 2266 
L 4684 1747 
L 678 294 
L 678 863 
L 3897 2003 
L 678 3150 
z
" transform="scale(0.015625)"/>
      <path id="DejaVuSans-2b" d="M 2944 4013 
L 2944 2272 
L 4684 2272 
L 4684 1741 
L 2944 1741 
L 2944 0 
L 2419 0 
L 2419 1741 
L 678 1741 
L 678 2272 
L 2419 2272 
L 2419 4013 
L 2944 4013 
z
" transform="scale(0.015625)"/>
      <path id="DejaVuSans-6d" d="M 3328 2828 
Q 3544 3216 3844 3400 
Q 4144 3584 4550 3584 
Q 5097 3584 5394 3201 
Q 5691 2819 5691 2113 
L 5691 0 
L 5113 0 
L 5113 2094 
Q 5113 2597 4934 2840 
Q 4756 3084 4391 3084 
Q 3944 3084 3684 2787 
Q 3425 2491 3425 1978 
L 3425 0 
L 2847 0 
L 2847 2094 
Q 2847 2600 2669 2842 
Q 2491 3084 2119 3084 
Q 1678 3084 1418 2786 
Q 1159 2488 1159 1978 
L 1159 0 
L 581 0 
L 581 3500 
L 1159 3500 
L 1159 2956 
Q 1356 3278 1631 3431 
Q 1906 3584 2284 3584 
Q 2666 3584 2933 3390 
Q 3200 3197 3328 2828 
z
" transform="scale(0.015625)"/>
      <path id="DejaVuSans-64" d="M 2906 2969 
L 2906 4863 
L 3481 4863 
L 3481 0 
L 2906 0 
L 2906 525 
Q 2725 213 2448 61 
Q 2172 -91 1784 -91 
Q 1150 -91 751 415 
Q 353 922 353 1747 
Q 353 2572 751 3078 
Q 1150 3584 1784 3584 
Q 2172 3584 2448 3432 
Q 2725 3281 2906 2969 
z
M 947 1747 
Q 947 1113 1208 752 
Q 1469 391 1925 391 
Q 2381 391 2643 752 
Q 2906 1113 2906 1747 
Q 2906 2381 2643 2742 
Q 2381 3103 1925 3103 
Q 1469 3103 1208 2742 
Q 947 2381 947 1747 
z
" transform="scale(0.015625)"/>
      <path id="DejaVuSans-38" d="M 2034 2216 
Q 1584 2216 1326 1975 
Q 1069 1734 1069 1313 
Q 1069 891 1326 650 
Q 1584 409 2034 409 
Q 2484 409 2743 651 
Q 3003 894 3003 1313 
Q 3003 1734 2745 1975 
Q 2488 2216 2034 2216 
z
M 1403 2484 
Q 997 2584 770 2862 
Q 544 3141 544 3541 
Q 544 4100 942 4425 
Q 1341 4750 2034 4750 
Q 2731 4750 3128 4425 
Q 3525 4100 3525 3541 
Q 3525 3141 3298 2862 
Q 3072 2584 2669 2484 
Q 3125 2378 3379 2068 
Q 3634 1759 3634 1313 
Q 3634 634 3220 271 
Q 2806 -91 2034 -91 
Q 1263 -91 848 271 
Q 434 634 434 1313 
Q 434 1759 690 2068 
Q 947 2378 1403 2484 
z
M 1172 3481 
Q 1172 3119 1398 2916 
Q 1625 2713 2034 2713 
Q 2441 2713 2670 2916 
Q 2900 3119 2900 3481 
Q 2900 3844 2670 4047 
Q 2441 4250 2034 4250 
Q 1625 4250 1398 4047 
Q 1172 3844 1172 3481 
z
" transform="scale(0.015625)"/>
     </defs>
     <use xlink:href="#DejaVuSans-31"/>
     <use xlink:href="#DejaVuSans-20" x="63.623047"/>
     <use xlink:href="#DejaVuSans-61" x="95.410156"/>
     <use xlink:href="#DejaVuSans-63" x="156.689453"/>
     <use xlink:href="#DejaVuSans-74" x="211.669922"/>
     <use xlink:href="#DejaVuSans-69" x="250.878906"/>
     <use xlink:href="#DejaVuSans-6f" x="278.662109"/>
     <use xlink:href="#DejaVuSans-6e" x="339.84375"/>
     <use xlink:href="#DejaVuSans-3a" x="403.222656"/>
     <use xlink:href="#DejaVuSans-20" x="436.914062"/>
     <use xlink:href="#DejaVuSans-69" x="468.701172"/>
     <use xlink:href="#DejaVuSans-20" x="496.484375"/>
     <use xlink:href="#DejaVuSans-2d" x="528.271484"/>
     <use xlink:href="#DejaVuSans-3e" x="564.355469"/>
     <use xlink:href="#DejaVuSans-20" x="648.144531"/>
     <use xlink:href="#DejaVuSans-69" x="679.931641"/>
     <use xlink:href="#DejaVuSans-2b" x="707.714844"/>
     <use xlink:href="#DejaVuSans-31" x="791.503906"/>
     <use xlink:href="#DejaVuSans-20" x="855.126953"/>
     <use xlink:href="#DejaVuSans-6d" x="886.914062"/>
     <use xlink:href="#DejaVuSans-6f" x="984.326172"/>
     <use xlink:href="#DejaVuSans-64" x="1045.507812"/>
     <use xlink:href="#DejaVuSans-20" x="1108.984375"/>
     <use xlink:href="#DejaVuSans-38" x="1140.771484"/>
    </g>
   </g>
   <g id="PathCollection_1">
    <defs>
     <path id="m804964a9ed" d="M 0 6.082763 
C 1.613167 6.082763 3.160481 5.441844 4.301163 4.301163 
C 5.441844 3.160481 6.082763 1.613167 6.082763 0 
C 6.082763 -1.613167 5.441844 -3.160481 4.301163 -4.301163 
C 3.160481 -5.441844 1.613167 -6.082763 0 -6.082763 
C -1.613167 -6.082763 -3.160481 -5.441844 -4.301163 -4.301163 
C -5.441844 -3.160481 -6.082763 -1.613167 -6.082763 0 
C -6.082763 1.613167 -5.441844 3.160481 -4.301163 4.301163 
C -3.160481 5.441844 -1.613167 6.082763 0 6.082763 
z
" style="stroke: #0072b2; stroke-width: 1.4"/>
    </defs>
    <g clip-path="url(#pdf865a3754)">
     <use xlink:href="#m804964a9ed" x="133.848347" y="77.816099" style="fill: #ffffff; stroke: #0072b2; stroke-width: 1.4"/>
     <use xlink:href="#m804964a9ed" x="160.04288" y="88.66623" style="fill: #ffffff; stroke: #0072b2; stroke-width: 1.4"/>
     <use xlink:href="#m804964a9ed" x="170.893011" y="114.860763" style="fill: #ffffff; stroke: #0072b2; stroke-width: 1.4"/>
     <use xlink:href="#m804964a9ed" x="160.04288" y="141.055296" style="fill: #ffffff; stroke: #0072b2; stroke-width: 1.4"/>
     <use xlink:href="#m804964a9ed" x="133.848347" y="151.905427" style="fill: #ffffff; stroke: #0072b2; stroke-width: 1.4"/>
     <use xlink:href="#m804964a9ed" x="107.653814" y="141.055296" style="fill: #ffffff; stroke: #0072b2; stroke-width: 1.4"/>
     <use xlink:href="#m804964a9ed" x="96.803683" y="114.860763" style="fill: #ffffff; stroke: #0072b2; stroke-width: 1.4"/>
     <use xlink:href="#m804964a9ed" x="107.653814" y="88.66623" style="fill: #ffffff; stroke: #0072b2; stroke-width: 1.4"/>
    </g>
   </g>
   <g id="text_2">
    <!-- 0 -->
    <g transform="translate(131.303347 80.023599) scale(0.08 -0.08)">
     <defs>
      <path id="DejaVuSans-30" d="M 2034 4250 
Q 1547 4250 1301 3770 
Q 1056 3291 1056 2328 
Q 1056 1369 1301 889 
Q 1547 409 2034 409 
Q 2525 409 2770 889 
Q 3016 1369 3016 2328 
Q 3016 3291 2770 3770 
Q 2525 4250 2034 4250 
z
M 2034 4750 
Q 2819 4750 3233 4129 
Q 3647 3509 3647 2328 
Q 3647 1150 3233 529 
Q 2819 -91 2034 -91 
Q 1250 -91 836 529 
Q 422 1150 422 2328 
Q 422 3509 836 4129 
Q 1250 4750 2034 4750 
z
" transform="scale(0.015625)"/>
     </defs>
     <use xlink:href="#DejaVuSans-30"/>
    </g>
   </g>
   <g id="text_3">
    <!-- 1 -->
    <g transform="translate(157.49788 90.87373) scale(0.08 -0.08)">
     <use xlink:href="#DejaVuSans-31"/>
    </g>
   </g>
   <g id="text_4">
    <!-- 2 -->
    <g transform="translate(168.348011 117.068263) scale(0.08 -0.08)">
     <defs>
      <path id="DejaVuSans-32" d="M 1228 531 
L 3431 531 
L 3431 0 
L 469 0 
L 469 531 
Q 828 903 1448 1529 
Q 2069 2156 2228 2338 
Q 2531 2678 2651 2914 
Q 2772 3150 2772 3378 
Q 2772 3750 2511 3984 
Q 2250 4219 1831 4219 
Q 1534 4219 1204 4116 
Q 875 4013 500 3803 
L 500 4441 
Q 881 4594 1212 4672 
Q 1544 4750 1819 4750 
Q 2544 4750 2975 4387 
Q 3406 4025 3406 3419 
Q 3406 3131 3298 2873 
Q 3191 2616 2906 2266 
Q 2828 2175 2409 1742 
Q 1991 1309 1228 531 
z
" transform="scale(0.015625)"/>
     </defs>
     <use xlink:href="#DejaVuSans-32"/>
    </g>
   </g>
   <g id="text_5">
    <!-- 3 -->
    <g transform="translate(157.49788 143.262796) scale(0.08 -0.08)">
     <defs>
      <path id="DejaVuSans-33" d="M 2597 2516 
Q 3050 2419 3304 2112 
Q 3559 1806 3559 1356 
Q 3559 666 3084 287 
Q 2609 -91 1734 -91 
Q 1441 -91 1130 -33 
Q 819 25 488 141 
L 488 750 
Q 750 597 1062 519 
Q 1375 441 1716 441 
Q 2309 441 2620 675 
Q 2931 909 2931 1356 
Q 2931 1769 2642 2001 
Q 2353 2234 1838 2234 
L 1294 2234 
L 1294 2753 
L 1863 2753 
Q 2328 2753 2575 2939 
Q 2822 3125 2822 3475 
Q 2822 3834 2567 4026 
Q 2313 4219 1838 4219 
Q 1578 4219 1281 4162 
Q 984 4106 628 3988 
L 628 4550 
Q 988 4650 1302 4700 
Q 1616 4750 1894 4750 
Q 2613 4750 3031 4423 
Q 3450 4097 3450 3541 
Q 3450 3153 3228 2886 
Q 3006 2619 2597 2516 
z
" transform="scale(0.015625)"/>
     </defs>
     <use xlink:href="#DejaVuSans-33"/>
    </g>
   </g>
   <g id="text_6">
    <!-- 4 -->
    <g transform="translate(131.303347 154.112927) scale(0.08 -0.08)">
     <defs>
      <path id="DejaVuSans-34" d="M 2419 4116 
L 825 1625 
L 2419 1625 
L 2419 4116 
z
M 2253 4666 
L 3047 4666 
L 3047 1625 
L 3713 1625 
L 3713 1100 
L 3047 1100 
L 3047 0 
L 2419 0 
L 2419 1100 
L 313 1100 
L 313 1709 
L 2253 4666 
z
" transform="scale(0.015625)"/>
     </defs>
     <use xlink:href="#DejaVuSans-34"/>
    </g>
   </g>
   <g id="text_7">
    <!-- 5 -->
    <g transform="translate(105.108814 143.262796) scale(0.08 -0.08)">
     <defs>
      <path id="DejaVuSans-35" d="M 691 4666 
L 3169 4666 
L 3169 4134 
L 1269 4134 
L 1269 2991 
Q 1406 3038 1543 3061 
Q 1681 3084 1819 3084 
Q 2600 3084 3056 2656 
Q 3513 2228 3513 1497 
Q 3513 744 3044 326 
Q 2575 -91 1722 -91 
Q 1428 -91 1123 -41 
Q 819 9 494 109 
L 494 744 
Q 775 591 1075 516 
Q 1375 441 1709 441 
Q 2250 441 2565 725 
Q 2881 1009 2881 1497 
Q 2881 1984 2565 2268 
Q 2250 2553 1709 2553 
Q 1456 2553 1204 2497 
Q 953 2441 691 2322 
L 691 4666 
z
" transform="scale(0.015625)"/>
     </defs>
     <use xlink:href="#DejaVuSans-35"/>
    </g>
   </g>
   <g id="text_8">
    <!-- 6 -->
    <g transform="translate(94.258683 117.068263) scale(0.08 -0.08)">
     <defs>
      <path id="DejaVuSans-36" d="M 2113 2584 
Q 1688 2584 1439 2293 
Q 1191 2003 1191 1497 
Q 1191 994 1439 701 
Q 1688 409 2113 409 
Q 2538 409 2786 701 
Q 3034 994 3034 1497 
Q 3034 2003 2786 2293 
Q 2538 2584 2113 2584 
z
M 3366 4563 
L 3366 3988 
Q 3128 4100 2886 4159 
Q 2644 4219 2406 4219 
Q 1781 4219 1451 3797 
Q 1122 3375 1075 2522 
Q 1259 2794 1537 2939 
Q 1816 3084 2150 3084 
Q 2853 3084 3261 2657 
Q 3669 2231 3669 1497 
Q 3669 778 3244 343 
Q 2819 -91 2113 -91 
Q 1303 -91 875 529 
Q 447 1150 447 2328 
Q 447 3434 972 4092 
Q 1497 4750 2381 4750 
Q 2619 4750 2861 4703 
Q 3103 4656 3366 4563 
z
" transform="scale(0.015625)"/>
     </defs>
     <use xlink:href="#DejaVuSans-36"/>
    </g>
   </g>
   <g id="text_9">
    <!-- 7 -->
    <g transform="translate(105.108814 90.87373) scale(0.08 -0.08)">
     <defs>
      <path id="DejaVuSans-37" d="M 525 4666 
L 3525 4666 
L 3525 4397 
L 1831 0 
L 1172 0 
L 2766 4134 
L 525 4134 
L 525 4666 
z
" transform="scale(0.015625)"/>
     </defs>
     <use xlink:href="#DejaVuSans-37"/>
    </g>
   </g>
  </g>
  <g id="axes_2">
   <g id="patch_11">
    <path d="M 274.431478 136.080276 
L 441.792347 136.080276 
L 441.792347 88.825443 
L 274.431478 88.825443 
z
" style="fill: #ffffff"/>
   </g>
   <g id="matplotlib.axis_3"/>
   <g id="matplotlib.axis_4"/>
   <g id="patch_12">
    <path d="M 290.136915 112.452859 
Q 294.823534 112.452859 299.510153 112.452859 
" clip-path="url(#p3cc5de3973)" style="fill: none; stroke: #d55e00; stroke-width: 1.25; stroke-linecap: round"/>
    <path d="M 293.536915 114.152859 
L 290.136915 112.452859 
L 293.536915 110.752859 
" clip-path="url(#p3cc5de3973)" style="fill: none; stroke: #d55e00; stroke-width: 1.25; stroke-linecap: round"/>
    <path d="M 296.110153 110.752859 
L 299.510153 112.452859 
L 296.110153 114.152859 
" clip-path="url(#p3cc5de3973)" style="fill: none; stroke: #d55e00; stroke-width: 1.25; stroke-linecap: round"/>
   </g>
   <g id="patch_13">
    <path d="M 311.232823 112.452859 
Q 315.919442 112.452859 320.606061 112.452859 
" clip-path="url(#p3cc5de3973)" style="fill: none; stroke: #d55e00; stroke-width: 1.25; stroke-linecap: round"/>
    <path d="M 314.632823 114.152859 
L 311.232823 112.452859 
L 314.632823 110.752859 
" clip-path="url(#p3cc5de3973)" style="fill: none; stroke: #d55e00; stroke-width: 1.25; stroke-linecap: round"/>
    <path d="M 317.206061 110.752859 
L 320.606061 112.452859 
L 317.206061 114.152859 
" clip-path="url(#p3cc5de3973)" style="fill: none; stroke: #d55e00; stroke-width: 1.25; stroke-linecap: round"/>
   </g>
   <g id="patch_14">
    <path d="M 332.32873 112.452859 
Q 337.01535 112.452859 341.701969 112.452859 
" clip-path="url(#p3cc5de3973)" style="fill: none; stroke: #d55e00; stroke-width: 1.25; stroke-linecap: round"/>
    <path d="M 335.72873 114.152859 
L 332.32873 112.452859 
L 335.72873 110.752859 
" clip-path="url(#p3cc5de3973)" style="fill: none; stroke: #d55e00; stroke-width: 1.25; stroke-linecap: round"/>
    <path d="M 338.301969 110.752859 
L 341.701969 112.452859 
L 338.301969 114.152859 
" clip-path="url(#p3cc5de3973)" style="fill: none; stroke: #d55e00; stroke-width: 1.25; stroke-linecap: round"/>
   </g>
   <g id="patch_15">
    <path d="M 353.424638 112.452859 
Q 358.111257 112.452859 362.797877 112.452859 
" clip-path="url(#p3cc5de3973)" style="fill: none; stroke: #d55e00; stroke-width: 1.25; stroke-linecap: round"/>
    <path d="M 356.824638 114.152859 
L 353.424638 112.452859 
L 356.824638 110.752859 
" clip-path="url(#p3cc5de3973)" style="fill: none; stroke: #d55e00; stroke-width: 1.25; stroke-linecap: round"/>
    <path d="M 359.397877 110.752859 
L 362.797877 112.452859 
L 359.397877 114.152859 
" clip-path="url(#p3cc5de3973)" style="fill: none; stroke: #d55e00; stroke-width: 1.25; stroke-linecap: round"/>
   </g>
   <g id="patch_16">
    <path d="M 374.520546 112.452859 
Q 379.207165 112.452859 383.893784 112.452859 
" clip-path="url(#p3cc5de3973)" style="fill: none; stroke: #d55e00; stroke-width: 1.25; stroke-linecap: round"/>
    <path d="M 377.920546 114.152859 
L 374.520546 112.452859 
L 377.920546 110.752859 
" clip-path="url(#p3cc5de3973)" style="fill: none; stroke: #d55e00; stroke-width: 1.25; stroke-linecap: round"/>
    <path d="M 380.493784 110.752859 
L 383.893784 112.452859 
L 380.493784 114.152859 
" clip-path="url(#p3cc5de3973)" style="fill: none; stroke: #d55e00; stroke-width: 1.25; stroke-linecap: round"/>
   </g>
   <g id="patch_17">
    <path d="M 395.616454 112.452859 
Q 400.303073 112.452859 404.989692 112.452859 
" clip-path="url(#p3cc5de3973)" style="fill: none; stroke: #d55e00; stroke-width: 1.25; stroke-linecap: round"/>
    <path d="M 399.016454 114.152859 
L 395.616454 112.452859 
L 399.016454 110.752859 
" clip-path="url(#p3cc5de3973)" style="fill: none; stroke: #d55e00; stroke-width: 1.25; stroke-linecap: round"/>
    <path d="M 401.589692 110.752859 
L 404.989692 112.452859 
L 401.589692 114.152859 
" clip-path="url(#p3cc5de3973)" style="fill: none; stroke: #d55e00; stroke-width: 1.25; stroke-linecap: round"/>
   </g>
   <g id="patch_18">
    <path d="M 416.712362 112.452859 
Q 421.398981 112.452859 426.0856 112.452859 
" clip-path="url(#p3cc5de3973)" style="fill: none; stroke: #d55e00; stroke-width: 1.25; stroke-linecap: round"/>
    <path d="M 420.112362 114.152859 
L 416.712362 112.452859 
L 420.112362 110.752859 
" clip-path="url(#p3cc5de3973)" style="fill: none; stroke: #d55e00; stroke-width: 1.25; stroke-linecap: round"/>
    <path d="M 422.6856 110.752859 
L 426.0856 112.452859 
L 422.6856 114.152859 
" clip-path="url(#p3cc5de3973)" style="fill: none; stroke: #d55e00; stroke-width: 1.25; stroke-linecap: round"/>
   </g>
   <g id="text_10">
    <!-- 7 actions: one neighboring pair -->
    <g transform="translate(295.549413 140.80576) scale(0.08 -0.08)">
     <defs>
      <path id="DejaVuSans-73" d="M 2834 3397 
L 2834 2853 
Q 2591 2978 2328 3040 
Q 2066 3103 1784 3103 
Q 1356 3103 1142 2972 
Q 928 2841 928 2578 
Q 928 2378 1081 2264 
Q 1234 2150 1697 2047 
L 1894 2003 
Q 2506 1872 2764 1633 
Q 3022 1394 3022 966 
Q 3022 478 2636 193 
Q 2250 -91 1575 -91 
Q 1294 -91 989 -36 
Q 684 19 347 128 
L 347 722 
Q 666 556 975 473 
Q 1284 391 1588 391 
Q 1994 391 2212 530 
Q 2431 669 2431 922 
Q 2431 1156 2273 1281 
Q 2116 1406 1581 1522 
L 1381 1569 
Q 847 1681 609 1914 
Q 372 2147 372 2553 
Q 372 3047 722 3315 
Q 1072 3584 1716 3584 
Q 2034 3584 2315 3537 
Q 2597 3491 2834 3397 
z
" transform="scale(0.015625)"/>
      <path id="DejaVuSans-65" d="M 3597 1894 
L 3597 1613 
L 953 1613 
Q 991 1019 1311 708 
Q 1631 397 2203 397 
Q 2534 397 2845 478 
Q 3156 559 3463 722 
L 3463 178 
Q 3153 47 2828 -22 
Q 2503 -91 2169 -91 
Q 1331 -91 842 396 
Q 353 884 353 1716 
Q 353 2575 817 3079 
Q 1281 3584 2069 3584 
Q 2775 3584 3186 3129 
Q 3597 2675 3597 1894 
z
M 3022 2063 
Q 3016 2534 2758 2815 
Q 2500 3097 2075 3097 
Q 1594 3097 1305 2825 
Q 1016 2553 972 2059 
L 3022 2063 
z
" transform="scale(0.015625)"/>
      <path id="DejaVuSans-67" d="M 2906 1791 
Q 2906 2416 2648 2759 
Q 2391 3103 1925 3103 
Q 1463 3103 1205 2759 
Q 947 2416 947 1791 
Q 947 1169 1205 825 
Q 1463 481 1925 481 
Q 2391 481 2648 825 
Q 2906 1169 2906 1791 
z
M 3481 434 
Q 3481 -459 3084 -895 
Q 2688 -1331 1869 -1331 
Q 1566 -1331 1297 -1286 
Q 1028 -1241 775 -1147 
L 775 -588 
Q 1028 -725 1275 -790 
Q 1522 -856 1778 -856 
Q 2344 -856 2625 -561 
Q 2906 -266 2906 331 
L 2906 616 
Q 2728 306 2450 153 
Q 2172 0 1784 0 
Q 1141 0 747 490 
Q 353 981 353 1791 
Q 353 2603 747 3093 
Q 1141 3584 1784 3584 
Q 2172 3584 2450 3431 
Q 2728 3278 2906 2969 
L 2906 3500 
L 3481 3500 
L 3481 434 
z
" transform="scale(0.015625)"/>
      <path id="DejaVuSans-68" d="M 3513 2113 
L 3513 0 
L 2938 0 
L 2938 2094 
Q 2938 2591 2744 2837 
Q 2550 3084 2163 3084 
Q 1697 3084 1428 2787 
Q 1159 2491 1159 1978 
L 1159 0 
L 581 0 
L 581 4863 
L 1159 4863 
L 1159 2956 
Q 1366 3272 1645 3428 
Q 1925 3584 2291 3584 
Q 2894 3584 3203 3211 
Q 3513 2838 3513 2113 
z
" transform="scale(0.015625)"/>
      <path id="DejaVuSans-62" d="M 3116 1747 
Q 3116 2381 2855 2742 
Q 2594 3103 2138 3103 
Q 1681 3103 1420 2742 
Q 1159 2381 1159 1747 
Q 1159 1113 1420 752 
Q 1681 391 2138 391 
Q 2594 391 2855 752 
Q 3116 1113 3116 1747 
z
M 1159 2969 
Q 1341 3281 1617 3432 
Q 1894 3584 2278 3584 
Q 2916 3584 3314 3078 
Q 3713 2572 3713 1747 
Q 3713 922 3314 415 
Q 2916 -91 2278 -91 
Q 1894 -91 1617 61 
Q 1341 213 1159 525 
L 1159 0 
L 581 0 
L 581 4863 
L 1159 4863 
L 1159 2969 
z
" transform="scale(0.015625)"/>
      <path id="DejaVuSans-72" d="M 2631 2963 
Q 2534 3019 2420 3045 
Q 2306 3072 2169 3072 
Q 1681 3072 1420 2755 
Q 1159 2438 1159 1844 
L 1159 0 
L 581 0 
L 581 3500 
L 1159 3500 
L 1159 2956 
Q 1341 3275 1631 3429 
Q 1922 3584 2338 3584 
Q 2397 3584 2469 3576 
Q 2541 3569 2628 3553 
L 2631 2963 
z
" transform="scale(0.015625)"/>
      <path id="DejaVuSans-70" d="M 1159 525 
L 1159 -1331 
L 581 -1331 
L 581 3500 
L 1159 3500 
L 1159 2969 
Q 1341 3281 1617 3432 
Q 1894 3584 2278 3584 
Q 2916 3584 3314 3078 
Q 3713 2572 3713 1747 
Q 3713 922 3314 415 
Q 2916 -91 2278 -91 
Q 1894 -91 1617 61 
Q 1341 213 1159 525 
z
M 3116 1747 
Q 3116 2381 2855 2742 
Q 2594 3103 2138 3103 
Q 1681 3103 1420 2742 
Q 1159 2381 1159 1747 
Q 1159 1113 1420 752 
Q 1681 391 2138 391 
Q 2594 391 2855 752 
Q 3116 1113 3116 1747 
z
" transform="scale(0.015625)"/>
     </defs>
     <use xlink:href="#DejaVuSans-37"/>
     <use xlink:href="#DejaVuSans-20" x="63.623047"/>
     <use xlink:href="#DejaVuSans-61" x="95.410156"/>
     <use xlink:href="#DejaVuSans-63" x="156.689453"/>
     <use xlink:href="#DejaVuSans-74" x="211.669922"/>
     <use xlink:href="#DejaVuSans-69" x="250.878906"/>
     <use xlink:href="#DejaVuSans-6f" x="278.662109"/>
     <use xlink:href="#DejaVuSans-6e" x="339.84375"/>
     <use xlink:href="#DejaVuSans-73" x="403.222656"/>
     <use xlink:href="#DejaVuSans-3a" x="455.322266"/>
     <use xlink:href="#DejaVuSans-20" x="489.013672"/>
     <use xlink:href="#DejaVuSans-6f" x="520.800781"/>
     <use xlink:href="#DejaVuSans-6e" x="581.982422"/>
     <use xlink:href="#DejaVuSans-65" x="645.361328"/>
     <use xlink:href="#DejaVuSans-20" x="706.884766"/>
     <use xlink:href="#DejaVuSans-6e" x="738.671875"/>
     <use xlink:href="#DejaVuSans-65" x="802.050781"/>
     <use xlink:href="#DejaVuSans-69" x="863.574219"/>
     <use xlink:href="#DejaVuSans-67" x="891.357422"/>
     <use xlink:href="#DejaVuSans-68" x="954.833984"/>
     <use xlink:href="#DejaVuSans-62" x="1018.212891"/>
     <use xlink:href="#DejaVuSans-6f" x="1081.689453"/>
     <use xlink:href="#DejaVuSans-72" x="1142.871094"/>
     <use xlink:href="#DejaVuSans-69" x="1183.984375"/>
     <use xlink:href="#DejaVuSans-6e" x="1211.767578"/>
     <use xlink:href="#DejaVuSans-67" x="1275.146484"/>
     <use xlink:href="#DejaVuSans-20" x="1338.623047"/>
     <use xlink:href="#DejaVuSans-70" x="1370.410156"/>
     <use xlink:href="#DejaVuSans-61" x="1433.886719"/>
     <use xlink:href="#DejaVuSans-69" x="1495.166016"/>
     <use xlink:href="#DejaVuSans-72" x="1522.949219"/>
    </g>
   </g>
   <g id="PathCollection_2">
    <defs>
     <path id="m85f3e5a7ac" d="M 0 5.700877 
C 1.51189 5.700877 2.962061 5.100197 4.031129 4.031129 
C 5.100197 2.962061 5.700877 1.51189 5.700877 0 
C 5.700877 -1.51189 5.100197 -2.962061 4.031129 -4.031129 
C 2.962061 -5.100197 1.51189 -5.700877 0 -5.700877 
C -1.51189 -5.700877 -2.962061 -5.100197 -4.031129 -4.031129 
C -5.100197 -2.962061 -5.700877 -1.51189 -5.700877 0 
C -5.700877 1.51189 -5.100197 2.962061 -4.031129 4.031129 
C -2.962061 5.100197 -1.51189 5.700877 0 5.700877 
z
" style="stroke: #d55e00; stroke-width: 1.4"/>
    </defs>
    <g clip-path="url(#p3cc5de3973)">
     <use xlink:href="#m85f3e5a7ac" x="284.276235" y="112.452859" style="fill: #ffffff; stroke: #d55e00; stroke-width: 1.4"/>
     <use xlink:href="#m85f3e5a7ac" x="305.372143" y="112.452859" style="fill: #ffffff; stroke: #d55e00; stroke-width: 1.4"/>
     <use xlink:href="#m85f3e5a7ac" x="326.468051" y="112.452859" style="fill: #ffffff; stroke: #d55e00; stroke-width: 1.4"/>
     <use xlink:href="#m85f3e5a7ac" x="347.563959" y="112.452859" style="fill: #ffffff; stroke: #d55e00; stroke-width: 1.4"/>
     <use xlink:href="#m85f3e5a7ac" x="368.659866" y="112.452859" style="fill: #ffffff; stroke: #d55e00; stroke-width: 1.4"/>
     <use xlink:href="#m85f3e5a7ac" x="389.755774" y="112.452859" style="fill: #ffffff; stroke: #d55e00; stroke-width: 1.4"/>
     <use xlink:href="#m85f3e5a7ac" x="410.851682" y="112.452859" style="fill: #ffffff; stroke: #d55e00; stroke-width: 1.4"/>
     <use xlink:href="#m85f3e5a7ac" x="431.94759" y="112.452859" style="fill: #ffffff; stroke: #d55e00; stroke-width: 1.4"/>
    </g>
   </g>
   <g id="text_11">
    <!-- 0 -->
    <g transform="translate(281.731235 114.660359) scale(0.08 -0.08)">
     <use xlink:href="#DejaVuSans-30"/>
    </g>
   </g>
   <g id="text_12">
    <!-- 1 -->
    <g transform="translate(302.827143 114.660359) scale(0.08 -0.08)">
     <use xlink:href="#DejaVuSans-31"/>
    </g>
   </g>
   <g id="text_13">
    <!-- 2 -->
    <g transform="translate(323.923051 114.660359) scale(0.08 -0.08)">
     <use xlink:href="#DejaVuSans-32"/>
    </g>
   </g>
   <g id="text_14">
    <!-- 3 -->
    <g transform="translate(345.018959 114.660359) scale(0.08 -0.08)">
     <use xlink:href="#DejaVuSans-33"/>
    </g>
   </g>
   <g id="text_15">
    <!-- 4 -->
    <g transform="translate(366.114866 114.660359) scale(0.08 -0.08)">
     <use xlink:href="#DejaVuSans-34"/>
    </g>
   </g>
   <g id="text_16">
    <!-- 5 -->
    <g transform="translate(387.210774 114.660359) scale(0.08 -0.08)">
     <use xlink:href="#DejaVuSans-35"/>
    </g>
   </g>
   <g id="text_17">
    <!-- 6 -->
    <g transform="translate(408.306682 114.660359) scale(0.08 -0.08)">
     <use xlink:href="#DejaVuSans-36"/>
    </g>
   </g>
   <g id="text_18">
    <!-- 7 -->
    <g transform="translate(429.40259 114.660359) scale(0.08 -0.08)">
     <use xlink:href="#DejaVuSans-37"/>
    </g>
   </g>
  </g>
  <g id="axes_3">
   <g id="patch_19">
    <path d="M 532.365181 163.759719 
L 632.385774 163.759719 
L 632.385774 61.146 
L 532.365181 61.146 
z
" style="fill: #ffffff"/>
   </g>
   <g id="line2d_1">
    <path d="M 582.375478 77.816099 
L 608.570011 88.66623 
" clip-path="url(#p90bbfda26f)" style="fill: none; stroke: #009e73; stroke-opacity: 0.22; stroke-width: 0.72; stroke-linecap: square"/>
   </g>
   <g id="line2d_2">
    <path d="M 582.375478 77.816099 
L 619.420142 114.860763 
" clip-path="url(#p90bbfda26f)" style="fill: none; stroke: #009e73; stroke-opacity: 0.22; stroke-width: 0.72; stroke-linecap: square"/>
   </g>
   <g id="line2d_3">
    <path d="M 582.375478 77.816099 
L 608.570011 141.055296 
" clip-path="url(#p90bbfda26f)" style="fill: none; stroke: #009e73; stroke-opacity: 0.22; stroke-width: 0.72; stroke-linecap: square"/>
   </g>
   <g id="line2d_4">
    <path d="M 582.375478 77.816099 
L 582.375478 151.905427 
" clip-path="url(#p90bbfda26f)" style="fill: none; stroke: #009e73; stroke-opacity: 0.22; stroke-width: 0.72; stroke-linecap: square"/>
   </g>
   <g id="line2d_5">
    <path d="M 582.375478 77.816099 
L 556.180945 141.055296 
" clip-path="url(#p90bbfda26f)" style="fill: none; stroke: #009e73; stroke-opacity: 0.22; stroke-width: 0.72; stroke-linecap: square"/>
   </g>
   <g id="line2d_6">
    <path d="M 582.375478 77.816099 
L 545.330814 114.860763 
" clip-path="url(#p90bbfda26f)" style="fill: none; stroke: #009e73; stroke-opacity: 0.22; stroke-width: 0.72; stroke-linecap: square"/>
   </g>
   <g id="line2d_7">
    <path d="M 582.375478 77.816099 
L 556.180945 88.66623 
" clip-path="url(#p90bbfda26f)" style="fill: none; stroke: #009e73; stroke-opacity: 0.22; stroke-width: 0.72; stroke-linecap: square"/>
   </g>
   <g id="line2d_8">
    <path d="M 608.570011 88.66623 
L 619.420142 114.860763 
" clip-path="url(#p90bbfda26f)" style="fill: none; stroke: #009e73; stroke-opacity: 0.22; stroke-width: 0.72; stroke-linecap: square"/>
   </g>
   <g id="line2d_9">
    <path d="M 608.570011 88.66623 
L 608.570011 141.055296 
" clip-path="url(#p90bbfda26f)" style="fill: none; stroke: #009e73; stroke-opacity: 0.22; stroke-width: 0.72; stroke-linecap: square"/>
   </g>
   <g id="line2d_10">
    <path d="M 608.570011 88.66623 
L 582.375478 151.905427 
" clip-path="url(#p90bbfda26f)" style="fill: none; stroke: #009e73; stroke-opacity: 0.22; stroke-width: 0.72; stroke-linecap: square"/>
   </g>
   <g id="line2d_11">
    <path d="M 608.570011 88.66623 
L 556.180945 141.055296 
" clip-path="url(#p90bbfda26f)" style="fill: none; stroke: #009e73; stroke-opacity: 0.22; stroke-width: 0.72; stroke-linecap: square"/>
   </g>
   <g id="line2d_12">
    <path d="M 608.570011 88.66623 
L 545.330814 114.860763 
" clip-path="url(#p90bbfda26f)" style="fill: none; stroke: #009e73; stroke-opacity: 0.22; stroke-width: 0.72; stroke-linecap: square"/>
   </g>
   <g id="line2d_13">
    <path d="M 608.570011 88.66623 
L 556.180945 88.66623 
" clip-path="url(#p90bbfda26f)" style="fill: none; stroke: #009e73; stroke-opacity: 0.22; stroke-width: 0.72; stroke-linecap: square"/>
   </g>
   <g id="line2d_14">
    <path d="M 619.420142 114.860763 
L 608.570011 141.055296 
" clip-path="url(#p90bbfda26f)" style="fill: none; stroke: #009e73; stroke-opacity: 0.22; stroke-width: 0.72; stroke-linecap: square"/>
   </g>
   <g id="line2d_15">
    <path d="M 619.420142 114.860763 
L 582.375478 151.905427 
" clip-path="url(#p90bbfda26f)" style="fill: none; stroke: #009e73; stroke-opacity: 0.22; stroke-width: 0.72; stroke-linecap: square"/>
   </g>
   <g id="line2d_16">
    <path d="M 619.420142 114.860763 
L 556.180945 141.055296 
" clip-path="url(#p90bbfda26f)" style="fill: none; stroke: #009e73; stroke-opacity: 0.22; stroke-width: 0.72; stroke-linecap: square"/>
   </g>
   <g id="line2d_17">
    <path d="M 619.420142 114.860763 
L 545.330814 114.860763 
" clip-path="url(#p90bbfda26f)" style="fill: none; stroke: #009e73; stroke-opacity: 0.22; stroke-width: 0.72; stroke-linecap: square"/>
   </g>
   <g id="line2d_18">
    <path d="M 619.420142 114.860763 
L 556.180945 88.66623 
" clip-path="url(#p90bbfda26f)" style="fill: none; stroke: #009e73; stroke-opacity: 0.22; stroke-width: 0.72; stroke-linecap: square"/>
   </g>
   <g id="line2d_19">
    <path d="M 608.570011 141.055296 
L 582.375478 151.905427 
" clip-path="url(#p90bbfda26f)" style="fill: none; stroke: #009e73; stroke-opacity: 0.22; stroke-width: 0.72; stroke-linecap: square"/>
   </g>
   <g id="line2d_20">
    <path d="M 608.570011 141.055296 
L 556.180945 141.055296 
" clip-path="url(#p90bbfda26f)" style="fill: none; stroke: #009e73; stroke-opacity: 0.22; stroke-width: 0.72; stroke-linecap: square"/>
   </g>
   <g id="line2d_21">
    <path d="M 608.570011 141.055296 
L 545.330814 114.860763 
" clip-path="url(#p90bbfda26f)" style="fill: none; stroke: #009e73; stroke-opacity: 0.22; stroke-width: 0.72; stroke-linecap: square"/>
   </g>
   <g id="line2d_22">
    <path d="M 608.570011 141.055296 
L 556.180945 88.66623 
" clip-path="url(#p90bbfda26f)" style="fill: none; stroke: #009e73; stroke-opacity: 0.22; stroke-width: 0.72; stroke-linecap: square"/>
   </g>
   <g id="line2d_23">
    <path d="M 582.375478 151.905427 
L 556.180945 141.055296 
" clip-path="url(#p90bbfda26f)" style="fill: none; stroke: #009e73; stroke-opacity: 0.22; stroke-width: 0.72; stroke-linecap: square"/>
   </g>
   <g id="line2d_24">
    <path d="M 582.375478 151.905427 
L 545.330814 114.860763 
" clip-path="url(#p90bbfda26f)" style="fill: none; stroke: #009e73; stroke-opacity: 0.22; stroke-width: 0.72; stroke-linecap: square"/>
   </g>
   <g id="line2d_25">
    <path d="M 582.375478 151.905427 
L 556.180945 88.66623 
" clip-path="url(#p90bbfda26f)" style="fill: none; stroke: #009e73; stroke-opacity: 0.22; stroke-width: 0.72; stroke-linecap: square"/>
   </g>
   <g id="line2d_26">
    <path d="M 556.180945 141.055296 
L 545.330814 114.860763 
" clip-path="url(#p90bbfda26f)" style="fill: none; stroke: #009e73; stroke-opacity: 0.22; stroke-width: 0.72; stroke-linecap: square"/>
   </g>
   <g id="line2d_27">
    <path d="M 556.180945 141.055296 
L 556.180945 88.66623 
" clip-path="url(#p90bbfda26f)" style="fill: none; stroke: #009e73; stroke-opacity: 0.22; stroke-width: 0.72; stroke-linecap: square"/>
   </g>
   <g id="line2d_28">
    <path d="M 545.330814 114.860763 
L 556.180945 88.66623 
" clip-path="url(#p90bbfda26f)" style="fill: none; stroke: #009e73; stroke-opacity: 0.22; stroke-width: 0.72; stroke-linecap: square"/>
   </g>
   <g id="matplotlib.axis_5"/>
   <g id="matplotlib.axis_6"/>
   <g id="text_19">
    <!-- 28 actions: any unordered pair -->
    <g transform="translate(520.709228 172.994954) scale(0.08 -0.08)">
     <defs>
      <path id="DejaVuSans-79" d="M 2059 -325 
Q 1816 -950 1584 -1140 
Q 1353 -1331 966 -1331 
L 506 -1331 
L 506 -850 
L 844 -850 
Q 1081 -850 1212 -737 
Q 1344 -625 1503 -206 
L 1606 56 
L 191 3500 
L 800 3500 
L 1894 763 
L 2988 3500 
L 3597 3500 
L 2059 -325 
z
" transform="scale(0.015625)"/>
      <path id="DejaVuSans-75" d="M 544 1381 
L 544 3500 
L 1119 3500 
L 1119 1403 
Q 1119 906 1312 657 
Q 1506 409 1894 409 
Q 2359 409 2629 706 
Q 2900 1003 2900 1516 
L 2900 3500 
L 3475 3500 
L 3475 0 
L 2900 0 
L 2900 538 
Q 2691 219 2414 64 
Q 2138 -91 1772 -91 
Q 1169 -91 856 284 
Q 544 659 544 1381 
z
M 1991 3584 
L 1991 3584 
z
" transform="scale(0.015625)"/>
     </defs>
     <use xlink:href="#DejaVuSans-32"/>
     <use xlink:href="#DejaVuSans-38" x="63.623047"/>
     <use xlink:href="#DejaVuSans-20" x="127.246094"/>
     <use xlink:href="#DejaVuSans-61" x="159.033203"/>
     <use xlink:href="#DejaVuSans-63" x="220.3125"/>
     <use xlink:href="#DejaVuSans-74" x="275.292969"/>
     <use xlink:href="#DejaVuSans-69" x="314.501953"/>
     <use xlink:href="#DejaVuSans-6f" x="342.285156"/>
     <use xlink:href="#DejaVuSans-6e" x="403.466797"/>
     <use xlink:href="#DejaVuSans-73" x="466.845703"/>
     <use xlink:href="#DejaVuSans-3a" x="518.945312"/>
     <use xlink:href="#DejaVuSans-20" x="552.636719"/>
     <use xlink:href="#DejaVuSans-61" x="584.423828"/>
     <use xlink:href="#DejaVuSans-6e" x="645.703125"/>
     <use xlink:href="#DejaVuSans-79" x="709.082031"/>
     <use xlink:href="#DejaVuSans-20" x="768.261719"/>
     <use xlink:href="#DejaVuSans-75" x="800.048828"/>
     <use xlink:href="#DejaVuSans-6e" x="863.427734"/>
     <use xlink:href="#DejaVuSans-6f" x="926.806641"/>
     <use xlink:href="#DejaVuSans-72" x="987.988281"/>
     <use xlink:href="#DejaVuSans-64" x="1027.351562"/>
     <use xlink:href="#DejaVuSans-65" x="1090.828125"/>
     <use xlink:href="#DejaVuSans-72" x="1152.351562"/>
     <use xlink:href="#DejaVuSans-65" x="1191.214844"/>
     <use xlink:href="#DejaVuSans-64" x="1252.738281"/>
     <use xlink:href="#DejaVuSans-20" x="1316.214844"/>
     <use xlink:href="#DejaVuSans-70" x="1348.001953"/>
     <use xlink:href="#DejaVuSans-61" x="1411.478516"/>
     <use xlink:href="#DejaVuSans-69" x="1472.757812"/>
     <use xlink:href="#DejaVuSans-72" x="1500.541016"/>
    </g>
   </g>
   <g id="PathCollection_3">
    <defs>
     <path id="mc38ed92d40" d="M 0 6.082763 
C 1.613167 6.082763 3.160481 5.441844 4.301163 4.301163 
C 5.441844 3.160481 6.082763 1.613167 6.082763 0 
C 6.082763 -1.613167 5.441844 -3.160481 4.301163 -4.301163 
C 3.160481 -5.441844 1.613167 -6.082763 0 -6.082763 
C -1.613167 -6.082763 -3.160481 -5.441844 -4.301163 -4.301163 
C -5.441844 -3.160481 -6.082763 -1.613167 -6.082763 0 
C -6.082763 1.613167 -5.441844 3.160481 -4.301163 4.301163 
C -3.160481 5.441844 -1.613167 6.082763 0 6.082763 
z
" style="stroke: #009e73; stroke-width: 1.4"/>
    </defs>
    <g clip-path="url(#p90bbfda26f)">
     <use xlink:href="#mc38ed92d40" x="582.375478" y="77.816099" style="fill: #ffffff; stroke: #009e73; stroke-width: 1.4"/>
     <use xlink:href="#mc38ed92d40" x="608.570011" y="88.66623" style="fill: #ffffff; stroke: #009e73; stroke-width: 1.4"/>
     <use xlink:href="#mc38ed92d40" x="619.420142" y="114.860763" style="fill: #ffffff; stroke: #009e73; stroke-width: 1.4"/>
     <use xlink:href="#mc38ed92d40" x="608.570011" y="141.055296" style="fill: #ffffff; stroke: #009e73; stroke-width: 1.4"/>
     <use xlink:href="#mc38ed92d40" x="582.375478" y="151.905427" style="fill: #ffffff; stroke: #009e73; stroke-width: 1.4"/>
     <use xlink:href="#mc38ed92d40" x="556.180945" y="141.055296" style="fill: #ffffff; stroke: #009e73; stroke-width: 1.4"/>
     <use xlink:href="#mc38ed92d40" x="545.330814" y="114.860763" style="fill: #ffffff; stroke: #009e73; stroke-width: 1.4"/>
     <use xlink:href="#mc38ed92d40" x="556.180945" y="88.66623" style="fill: #ffffff; stroke: #009e73; stroke-width: 1.4"/>
    </g>
   </g>
   <g id="text_20">
    <!-- 0 -->
    <g transform="translate(579.830478 80.023599) scale(0.08 -0.08)">
     <use xlink:href="#DejaVuSans-30"/>
    </g>
   </g>
   <g id="text_21">
    <!-- 1 -->
    <g transform="translate(606.025011 90.87373) scale(0.08 -0.08)">
     <use xlink:href="#DejaVuSans-31"/>
    </g>
   </g>
   <g id="text_22">
    <!-- 2 -->
    <g transform="translate(616.875142 117.068263) scale(0.08 -0.08)">
     <use xlink:href="#DejaVuSans-32"/>
    </g>
   </g>
   <g id="text_23">
    <!-- 3 -->
    <g transform="translate(606.025011 143.262796) scale(0.08 -0.08)">
     <use xlink:href="#DejaVuSans-33"/>
    </g>
   </g>
   <g id="text_24">
    <!-- 4 -->
    <g transform="translate(579.830478 154.112927) scale(0.08 -0.08)">
     <use xlink:href="#DejaVuSans-34"/>
    </g>
   </g>
   <g id="text_25">
    <!-- 5 -->
    <g transform="translate(553.635945 143.262796) scale(0.08 -0.08)">
     <use xlink:href="#DejaVuSans-35"/>
    </g>
   </g>
   <g id="text_26">
    <!-- 6 -->
    <g transform="translate(542.785814 117.068263) scale(0.08 -0.08)">
     <use xlink:href="#DejaVuSans-36"/>
    </g>
   </g>
   <g id="text_27">
    <!-- 7 -->
    <g transform="translate(553.635945 90.87373) scale(0.08 -0.08)">
     <use xlink:href="#DejaVuSans-37"/>
    </g>
   </g>
  </g>
  <g id="axes_4">
   <g id="patch_20">
    <path d="M 62.58882 352.854 
L 205.107874 352.854 
L 205.107874 210.334946 
L 62.58882 210.334946 
z
" style="fill: #ffffff"/>
   </g>
   <g id="matplotlib.axis_7"/>
   <g id="matplotlib.axis_8"/>
   <g id="patch_21">
    <path d="M 183.836609 274.820075 
Q 180.973865 262.073442 174.73228 252.216792 
" clip-path="url(#peef3ac9776)" style="fill: none; opacity: 0.78; stroke: #0072b2; stroke-width: 1.25; stroke-linecap: round"/>
    <path d="M 175.137515 256.221262 
L 174.73228 252.216792 
L 178.178997 254.295286 
z
" clip-path="url(#peef3ac9776)" style="fill: #0072b2; opacity: 0.78; stroke: #0072b2; stroke-width: 1.25; stroke-linecap: round"/>
   </g>
   <g id="patch_22">
    <path d="M 164.405163 241.457211 
Q 153.367668 234.468246 141.984496 231.912009 
" clip-path="url(#peef3ac9776)" style="fill: none; opacity: 0.78; stroke: #0072b2; stroke-width: 1.25; stroke-linecap: round"/>
    <path d="M 145.102628 234.457053 
L 141.984496 231.912009 
L 145.89141 230.94453 
z
" clip-path="url(#peef3ac9776)" style="fill: #0072b2; opacity: 0.78; stroke: #0072b2; stroke-width: 1.25; stroke-linecap: round"/>
   </g>
   <g id="patch_23">
    <path d="M 127.073949 231.606211 
Q 114.327316 234.468955 104.470666 240.71054 
" clip-path="url(#peef3ac9776)" style="fill: none; opacity: 0.78; stroke: #0072b2; stroke-width: 1.25; stroke-linecap: round"/>
    <path d="M 108.475137 240.305306 
L 104.470666 240.71054 
L 106.54916 237.263823 
z
" clip-path="url(#peef3ac9776)" style="fill: #0072b2; opacity: 0.78; stroke: #0072b2; stroke-width: 1.25; stroke-linecap: round"/>
   </g>
   <g id="patch_24">
    <path d="M 93.711085 251.037657 
Q 86.722121 262.075153 84.165884 273.458325 
" clip-path="url(#peef3ac9776)" style="fill: none; opacity: 0.78; stroke: #0072b2; stroke-width: 1.25; stroke-linecap: round"/>
    <path d="M 86.710928 270.340192 
L 84.165884 273.458325 
L 83.198404 269.55141 
z
" clip-path="url(#peef3ac9776)" style="fill: #0072b2; opacity: 0.78; stroke: #0072b2; stroke-width: 1.25; stroke-linecap: round"/>
   </g>
   <g id="patch_25">
    <path d="M 83.860085 288.368871 
Q 86.722829 301.115504 92.964415 310.972154 
" clip-path="url(#peef3ac9776)" style="fill: none; opacity: 0.78; stroke: #0072b2; stroke-width: 1.25; stroke-linecap: round"/>
    <path d="M 92.55918 306.967684 
L 92.964415 310.972154 
L 89.517697 308.89366 
z
" clip-path="url(#peef3ac9776)" style="fill: #0072b2; opacity: 0.78; stroke: #0072b2; stroke-width: 1.25; stroke-linecap: round"/>
   </g>
   <g id="patch_26">
    <path d="M 103.291531 321.731735 
Q 114.329027 328.7207 125.712199 331.276936 
" clip-path="url(#peef3ac9776)" style="fill: none; opacity: 0.78; stroke: #0072b2; stroke-width: 1.25; stroke-linecap: round"/>
    <path d="M 122.594066 328.731893 
L 125.712199 331.276936 
L 121.805284 332.244416 
z
" clip-path="url(#peef3ac9776)" style="fill: #0072b2; opacity: 0.78; stroke: #0072b2; stroke-width: 1.25; stroke-linecap: round"/>
   </g>
   <g id="patch_27">
    <path d="M 140.622745 331.582735 
Q 153.369378 328.719991 163.226029 322.478405 
" clip-path="url(#peef3ac9776)" style="fill: none; opacity: 0.78; stroke: #0072b2; stroke-width: 1.25; stroke-linecap: round"/>
    <path d="M 159.221558 322.88364 
L 163.226029 322.478405 
L 161.147534 325.925123 
z
" clip-path="url(#peef3ac9776)" style="fill: #0072b2; opacity: 0.78; stroke: #0072b2; stroke-width: 1.25; stroke-linecap: round"/>
   </g>
   <g id="patch_28">
    <path d="M 173.985609 312.151289 
Q 180.974574 301.113793 183.530811 289.730621 
" clip-path="url(#peef3ac9776)" style="fill: none; opacity: 0.78; stroke: #0072b2; stroke-width: 1.25; stroke-linecap: round"/>
    <path d="M 180.985767 292.848754 
L 183.530811 289.730621 
L 184.498291 293.637536 
z
" clip-path="url(#peef3ac9776)" style="fill: #0072b2; opacity: 0.78; stroke: #0072b2; stroke-width: 1.25; stroke-linecap: round"/>
   </g>
   <g id="patch_29">
    <path d="M 62.58882 352.854 
L 62.58882 210.334946 
" style="fill: none; stroke: #888888; stroke-width: 0.55; stroke-linejoin: miter; stroke-linecap: square"/>
   </g>
   <g id="patch_30">
    <path d="M 205.107874 352.854 
L 205.107874 210.334946 
" style="fill: none; stroke: #888888; stroke-width: 0.55; stroke-linejoin: miter; stroke-linecap: square"/>
   </g>
   <g id="patch_31">
    <path d="M 62.58882 352.854 
L 205.107874 352.854 
" style="fill: none; stroke: #888888; stroke-width: 0.55; stroke-linejoin: miter; stroke-linecap: square"/>
   </g>
   <g id="patch_32">
    <path d="M 62.58882 210.334946 
L 205.107874 210.334946 
" style="fill: none; stroke: #888888; stroke-width: 0.55; stroke-linejoin: miter; stroke-linecap: square"/>
   </g>
   <g id="text_28">
    <!-- gain 1.00 | L=1 MSE 0 -->
    <g transform="translate(83.858269 206.334946) scale(0.09 -0.09)">
     <defs>
      <path id="DejaVuSans-2e" d="M 684 794 
L 1344 794 
L 1344 0 
L 684 0 
L 684 794 
z
" transform="scale(0.015625)"/>
      <path id="DejaVuSans-7c" d="M 1344 4891 
L 1344 -1509 
L 813 -1509 
L 813 4891 
L 1344 4891 
z
" transform="scale(0.015625)"/>
      <path id="DejaVuSans-4c" d="M 628 4666 
L 1259 4666 
L 1259 531 
L 3531 531 
L 3531 0 
L 628 0 
L 628 4666 
z
" transform="scale(0.015625)"/>
      <path id="DejaVuSans-3d" d="M 678 2906 
L 4684 2906 
L 4684 2381 
L 678 2381 
L 678 2906 
z
M 678 1631 
L 4684 1631 
L 4684 1100 
L 678 1100 
L 678 1631 
z
" transform="scale(0.015625)"/>
      <path id="DejaVuSans-4d" d="M 628 4666 
L 1569 4666 
L 2759 1491 
L 3956 4666 
L 4897 4666 
L 4897 0 
L 4281 0 
L 4281 4097 
L 3078 897 
L 2444 897 
L 1241 4097 
L 1241 0 
L 628 0 
L 628 4666 
z
" transform="scale(0.015625)"/>
      <path id="DejaVuSans-53" d="M 3425 4513 
L 3425 3897 
Q 3066 4069 2747 4153 
Q 2428 4238 2131 4238 
Q 1616 4238 1336 4038 
Q 1056 3838 1056 3469 
Q 1056 3159 1242 3001 
Q 1428 2844 1947 2747 
L 2328 2669 
Q 3034 2534 3370 2195 
Q 3706 1856 3706 1288 
Q 3706 609 3251 259 
Q 2797 -91 1919 -91 
Q 1588 -91 1214 -16 
Q 841 59 441 206 
L 441 856 
Q 825 641 1194 531 
Q 1563 422 1919 422 
Q 2459 422 2753 634 
Q 3047 847 3047 1241 
Q 3047 1584 2836 1778 
Q 2625 1972 2144 2069 
L 1759 2144 
Q 1053 2284 737 2584 
Q 422 2884 422 3419 
Q 422 4038 858 4394 
Q 1294 4750 2059 4750 
Q 2388 4750 2728 4690 
Q 3069 4631 3425 4513 
z
" transform="scale(0.015625)"/>
      <path id="DejaVuSans-45" d="M 628 4666 
L 3578 4666 
L 3578 4134 
L 1259 4134 
L 1259 2753 
L 3481 2753 
L 3481 2222 
L 1259 2222 
L 1259 531 
L 3634 531 
L 3634 0 
L 628 0 
L 628 4666 
z
" transform="scale(0.015625)"/>
     </defs>
     <use xlink:href="#DejaVuSans-67"/>
     <use xlink:href="#DejaVuSans-61" x="63.476562"/>
     <use xlink:href="#DejaVuSans-69" x="124.755859"/>
     <use xlink:href="#DejaVuSans-6e" x="152.539062"/>
     <use xlink:href="#DejaVuSans-20" x="215.917969"/>
     <use xlink:href="#DejaVuSans-31" x="247.705078"/>
     <use xlink:href="#DejaVuSans-2e" x="311.328125"/>
     <use xlink:href="#DejaVuSans-30" x="343.115234"/>
     <use xlink:href="#DejaVuSans-30" x="406.738281"/>
     <use xlink:href="#DejaVuSans-20" x="470.361328"/>
     <use xlink:href="#DejaVuSans-7c" x="502.148438"/>
     <use xlink:href="#DejaVuSans-20" x="535.839844"/>
     <use xlink:href="#DejaVuSans-4c" x="567.626953"/>
     <use xlink:href="#DejaVuSans-3d" x="623.339844"/>
     <use xlink:href="#DejaVuSans-31" x="707.128906"/>
     <use xlink:href="#DejaVuSans-20" x="770.751953"/>
     <use xlink:href="#DejaVuSans-4d" x="802.539062"/>
     <use xlink:href="#DejaVuSans-53" x="888.818359"/>
     <use xlink:href="#DejaVuSans-45" x="952.294922"/>
     <use xlink:href="#DejaVuSans-20" x="1015.478516"/>
     <use xlink:href="#DejaVuSans-30" x="1047.265625"/>
    </g>
   </g>
   <g id="PathCollection_4">
    <defs>
     <path id="m2654dadea0" d="M 0 6.164414 
C 1.634822 6.164414 3.202905 5.514892 4.358899 4.358899 
C 5.514892 3.202905 6.164414 1.634822 6.164414 0 
C 6.164414 -1.634822 5.514892 -3.202905 4.358899 -4.358899 
C 3.202905 -5.514892 1.634822 -6.164414 0 -6.164414 
C -1.634822 -6.164414 -3.202905 -5.514892 -4.358899 -4.358899 
C -5.514892 -3.202905 -6.164414 -1.634822 -6.164414 0 
C -6.164414 1.634822 -5.514892 3.202905 -4.358899 4.358899 
C -3.202905 5.514892 -1.634822 6.164414 0 6.164414 
z
" style="stroke: #0072b2; stroke-width: 1.4"/>
    </defs>
    <g clip-path="url(#peef3ac9776)">
     <use xlink:href="#m2654dadea0" x="186.245058" y="281.594473" style="fill: #ffffff; stroke: #0072b2; stroke-width: 1.4"/>
     <use xlink:href="#m2654dadea0" x="170.898417" y="244.544403" style="fill: #ffffff; stroke: #0072b2; stroke-width: 1.4"/>
     <use xlink:href="#m2654dadea0" x="133.848347" y="229.197762" style="fill: #ffffff; stroke: #0072b2; stroke-width: 1.4"/>
     <use xlink:href="#m2654dadea0" x="96.798278" y="244.544403" style="fill: #ffffff; stroke: #0072b2; stroke-width: 1.4"/>
     <use xlink:href="#m2654dadea0" x="81.451636" y="281.594473" style="fill: #ffffff; stroke: #0072b2; stroke-width: 1.4"/>
     <use xlink:href="#m2654dadea0" x="96.798278" y="318.644543" style="fill: #ffffff; stroke: #0072b2; stroke-width: 1.4"/>
     <use xlink:href="#m2654dadea0" x="133.848347" y="333.991184" style="fill: #ffffff; stroke: #0072b2; stroke-width: 1.4"/>
     <use xlink:href="#m2654dadea0" x="170.898417" y="318.644543" style="fill: #ffffff; stroke: #0072b2; stroke-width: 1.4"/>
    </g>
   </g>
   <g id="text_29">
    <!-- 0 -->
    <g transform="translate(183.700058 283.801973) scale(0.08 -0.08)">
     <use xlink:href="#DejaVuSans-30"/>
    </g>
   </g>
   <g id="text_30">
    <!-- 1 -->
    <g transform="translate(168.353417 246.751903) scale(0.08 -0.08)">
     <use xlink:href="#DejaVuSans-31"/>
    </g>
   </g>
   <g id="text_31">
    <!-- 2 -->
    <g transform="translate(131.303347 231.405262) scale(0.08 -0.08)">
     <use xlink:href="#DejaVuSans-32"/>
    </g>
   </g>
   <g id="text_32">
    <!-- 3 -->
    <g transform="translate(94.253278 246.751903) scale(0.08 -0.08)">
     <use xlink:href="#DejaVuSans-33"/>
    </g>
   </g>
   <g id="text_33">
    <!-- 4 -->
    <g transform="translate(78.906636 283.801973) scale(0.08 -0.08)">
     <use xlink:href="#DejaVuSans-34"/>
    </g>
   </g>
   <g id="text_34">
    <!-- 5 -->
    <g transform="translate(94.253278 320.852043) scale(0.08 -0.08)">
     <use xlink:href="#DejaVuSans-35"/>
    </g>
   </g>
   <g id="text_35">
    <!-- 6 -->
    <g transform="translate(131.303347 336.198684) scale(0.08 -0.08)">
     <use xlink:href="#DejaVuSans-36"/>
    </g>
   </g>
   <g id="text_36">
    <!-- 7 -->
    <g transform="translate(168.353417 320.852043) scale(0.08 -0.08)">
     <use xlink:href="#DejaVuSans-37"/>
    </g>
   </g>
  </g>
  <g id="axes_5">
   <g id="patch_33">
    <path d="M 286.852385 352.854 
L 429.37144 352.854 
L 429.37144 210.334946 
L 286.852385 210.334946 
z
" style="fill: #ffffff"/>
   </g>
   <g id="matplotlib.axis_9"/>
   <g id="matplotlib.axis_10"/>
   <g id="patch_34">
    <path d="M 351.624039 297.263811 
Q 353.200884 289.659856 349.697227 284.341895 
" clip-path="url(#pd59930f994)" style="fill: none; opacity: 0.78; stroke: #d55e00; stroke-width: 1.25; stroke-linecap: round"/>
    <path d="M 350.174717 288.338394 
L 349.697227 284.341895 
L 353.18092 286.357803 
z
" clip-path="url(#pd59930f994)" style="fill: #d55e00; opacity: 0.78; stroke: #d55e00; stroke-width: 1.25; stroke-linecap: round"/>
   </g>
   <g id="patch_35">
    <path d="M 348.929084 283.175983 
Q 353.201116 289.661067 351.907624 295.896706 
" clip-path="url(#pd59930f994)" style="fill: none; opacity: 0.78; stroke: #d55e00; stroke-width: 1.25; stroke-linecap: round"/>
    <path d="M 354.401306 292.737346 
L 351.907624 295.896706 
L 350.876345 292.006145 
z
" clip-path="url(#pd59930f994)" style="fill: #d55e00; opacity: 0.78; stroke: #d55e00; stroke-width: 1.25; stroke-linecap: round"/>
   </g>
   <g id="patch_36">
    <path d="M 286.852385 352.854 
L 286.852385 210.334946 
" style="fill: none; stroke: #888888; stroke-width: 0.55; stroke-linejoin: miter; stroke-linecap: square"/>
   </g>
   <g id="patch_37">
    <path d="M 429.37144 352.854 
L 429.37144 210.334946 
" style="fill: none; stroke: #888888; stroke-width: 0.55; stroke-linejoin: miter; stroke-linecap: square"/>
   </g>
   <g id="patch_38">
    <path d="M 286.852385 352.854 
L 429.37144 352.854 
" style="fill: none; stroke: #888888; stroke-width: 0.55; stroke-linejoin: miter; stroke-linecap: square"/>
   </g>
   <g id="patch_39">
    <path d="M 286.852385 210.334946 
L 429.37144 210.334946 
" style="fill: none; stroke: #888888; stroke-width: 0.55; stroke-linejoin: miter; stroke-linecap: square"/>
   </g>
   <g id="text_37">
    <!-- gain 1.56 | L=1 MSE 0.094 -->
    <g transform="translate(298.102303 206.334946) scale(0.09 -0.09)">
     <defs>
      <path id="DejaVuSans-39" d="M 703 97 
L 703 672 
Q 941 559 1184 500 
Q 1428 441 1663 441 
Q 2288 441 2617 861 
Q 2947 1281 2994 2138 
Q 2813 1869 2534 1725 
Q 2256 1581 1919 1581 
Q 1219 1581 811 2004 
Q 403 2428 403 3163 
Q 403 3881 828 4315 
Q 1253 4750 1959 4750 
Q 2769 4750 3195 4129 
Q 3622 3509 3622 2328 
Q 3622 1225 3098 567 
Q 2575 -91 1691 -91 
Q 1453 -91 1209 -44 
Q 966 3 703 97 
z
M 1959 2075 
Q 2384 2075 2632 2365 
Q 2881 2656 2881 3163 
Q 2881 3666 2632 3958 
Q 2384 4250 1959 4250 
Q 1534 4250 1286 3958 
Q 1038 3666 1038 3163 
Q 1038 2656 1286 2365 
Q 1534 2075 1959 2075 
z
" transform="scale(0.015625)"/>
     </defs>
     <use xlink:href="#DejaVuSans-67"/>
     <use xlink:href="#DejaVuSans-61" x="63.476562"/>
     <use xlink:href="#DejaVuSans-69" x="124.755859"/>
     <use xlink:href="#DejaVuSans-6e" x="152.539062"/>
     <use xlink:href="#DejaVuSans-20" x="215.917969"/>
     <use xlink:href="#DejaVuSans-31" x="247.705078"/>
     <use xlink:href="#DejaVuSans-2e" x="311.328125"/>
     <use xlink:href="#DejaVuSans-35" x="343.115234"/>
     <use xlink:href="#DejaVuSans-36" x="406.738281"/>
     <use xlink:href="#DejaVuSans-20" x="470.361328"/>
     <use xlink:href="#DejaVuSans-7c" x="502.148438"/>
     <use xlink:href="#DejaVuSans-20" x="535.839844"/>
     <use xlink:href="#DejaVuSans-4c" x="567.626953"/>
     <use xlink:href="#DejaVuSans-3d" x="623.339844"/>
     <use xlink:href="#DejaVuSans-31" x="707.128906"/>
     <use xlink:href="#DejaVuSans-20" x="770.751953"/>
     <use xlink:href="#DejaVuSans-4d" x="802.539062"/>
     <use xlink:href="#DejaVuSans-53" x="888.818359"/>
     <use xlink:href="#DejaVuSans-45" x="952.294922"/>
     <use xlink:href="#DejaVuSans-20" x="1015.478516"/>
     <use xlink:href="#DejaVuSans-30" x="1047.265625"/>
     <use xlink:href="#DejaVuSans-2e" x="1110.888672"/>
     <use xlink:href="#DejaVuSans-30" x="1142.675781"/>
     <use xlink:href="#DejaVuSans-39" x="1206.298828"/>
     <use xlink:href="#DejaVuSans-34" x="1269.921875"/>
    </g>
   </g>
   <g id="PathCollection_5">
    <defs>
     <path id="mf1aad9d801" d="M 0 6.164414 
C 1.634822 6.164414 3.202905 5.514892 4.358899 4.358899 
C 5.514892 3.202905 6.164414 1.634822 6.164414 0 
C 6.164414 -1.634822 5.514892 -3.202905 4.358899 -4.358899 
C 3.202905 -5.514892 1.634822 -6.164414 0 -6.164414 
C -1.634822 -6.164414 -3.202905 -5.514892 -4.358899 -4.358899 
C -5.514892 -3.202905 -6.164414 -1.634822 -6.164414 0 
C -6.164414 1.634822 -5.514892 3.202905 -4.358899 4.358899 
C -3.202905 5.514892 -1.634822 6.164414 0 6.164414 
z
" style="stroke: #d55e00; stroke-width: 1.4"/>
    </defs>
    <g clip-path="url(#pd59930f994)">
     <use xlink:href="#mf1aad9d801" x="333.164036" y="333.991184" style="fill: #ffffff; stroke: #d55e00; stroke-width: 1.4"/>
     <use xlink:href="#mf1aad9d801" x="328.84672" y="310.507777" style="fill: #ffffff; stroke: #d55e00; stroke-width: 1.4"/>
     <use xlink:href="#mf1aad9d801" x="351.714073" y="302.242558" style="fill: #ffffff; stroke: #d55e00; stroke-width: 1.4"/>
     <use xlink:href="#mf1aad9d801" x="347.175171" y="278.51553" style="fill: #ffffff; stroke: #d55e00; stroke-width: 1.4"/>
     <use xlink:href="#mf1aad9d801" x="369.707965" y="270.059238" style="fill: #ffffff; stroke: #d55e00; stroke-width: 1.4"/>
     <use xlink:href="#mf1aad9d801" x="365.087193" y="246.302236" style="fill: #ffffff; stroke: #d55e00; stroke-width: 1.4"/>
     <use xlink:href="#mf1aad9d801" x="387.377105" y="237.928017" style="fill: #ffffff; stroke: #d55e00; stroke-width: 1.4"/>
     <use xlink:href="#mf1aad9d801" x="333.359098" y="229.197762" style="fill: #ffffff; stroke: #d55e00; stroke-width: 1.4"/>
    </g>
   </g>
   <g id="text_38">
    <!-- 0 -->
    <g transform="translate(330.619036 336.198684) scale(0.08 -0.08)">
     <use xlink:href="#DejaVuSans-30"/>
    </g>
   </g>
   <g id="text_39">
    <!-- 1 -->
    <g transform="translate(326.30172 312.715277) scale(0.08 -0.08)">
     <use xlink:href="#DejaVuSans-31"/>
    </g>
   </g>
   <g id="text_40">
    <!-- 2 -->
    <g transform="translate(349.169073 304.450058) scale(0.08 -0.08)">
     <use xlink:href="#DejaVuSans-32"/>
    </g>
   </g>
   <g id="text_41">
    <!-- 3 -->
    <g transform="translate(344.630171 280.72303) scale(0.08 -0.08)">
     <use xlink:href="#DejaVuSans-33"/>
    </g>
   </g>
   <g id="text_42">
    <!-- 4 -->
    <g transform="translate(367.162965 272.266738) scale(0.08 -0.08)">
     <use xlink:href="#DejaVuSans-34"/>
    </g>
   </g>
   <g id="text_43">
    <!-- 5 -->
    <g transform="translate(362.542193 248.509736) scale(0.08 -0.08)">
     <use xlink:href="#DejaVuSans-35"/>
    </g>
   </g>
   <g id="text_44">
    <!-- 6 -->
    <g transform="translate(384.832105 240.135517) scale(0.08 -0.08)">
     <use xlink:href="#DejaVuSans-36"/>
    </g>
   </g>
   <g id="text_45">
    <!-- 7 -->
    <g transform="translate(330.814098 231.405262) scale(0.08 -0.08)">
     <use xlink:href="#DejaVuSans-37"/>
    </g>
   </g>
  </g>
  <g id="axes_6">
   <g id="patch_40">
    <path d="M 511.115951 352.854 
L 653.635005 352.854 
L 653.635005 210.334946 
L 511.115951 210.334946 
z
" style="fill: #ffffff"/>
   </g>
   <g id="matplotlib.axis_11"/>
   <g id="matplotlib.axis_12"/>
   <g id="patch_41">
    <path d="M 579.544004 307.601222 
Q 587.291478 271.35286 564.141867 244.217308 
" clip-path="url(#pdda9f0da91)" style="fill: none; opacity: 0.78; stroke: #009e73; stroke-width: 1.25; stroke-linecap: round"/>
    <path d="M 565.108955 248.12432 
L 564.141867 244.217308 
L 567.847729 245.787844 
z
" clip-path="url(#pdda9f0da91)" style="fill: #009e73; opacity: 0.78; stroke: #009e73; stroke-width: 1.25; stroke-linecap: round"/>
   </g>
   <g id="patch_42">
    <path d="M 563.231487 243.150177 
Q 587.290343 271.348378 579.83711 306.22949 
" clip-path="url(#pdda9f0da91)" style="fill: none; opacity: 0.78; stroke: #009e73; stroke-width: 1.25; stroke-linecap: round"/>
    <path d="M 582.349624 303.085087 
L 579.83711 306.22949 
L 578.829096 302.332837 
z
" clip-path="url(#pdda9f0da91)" style="fill: #009e73; opacity: 0.78; stroke: #009e73; stroke-width: 1.25; stroke-linecap: round"/>
   </g>
   <g id="patch_43">
    <path d="M 511.115951 352.854 
L 511.115951 210.334946 
" style="fill: none; stroke: #888888; stroke-width: 0.55; stroke-linejoin: miter; stroke-linecap: square"/>
   </g>
   <g id="patch_44">
    <path d="M 653.635005 352.854 
L 653.635005 210.334946 
" style="fill: none; stroke: #888888; stroke-width: 0.55; stroke-linejoin: miter; stroke-linecap: square"/>
   </g>
   <g id="patch_45">
    <path d="M 511.115951 352.854 
L 653.635005 352.854 
" style="fill: none; stroke: #888888; stroke-width: 0.55; stroke-linejoin: miter; stroke-linecap: square"/>
   </g>
   <g id="patch_46">
    <path d="M 511.115951 210.334946 
L 653.635005 210.334946 
" style="fill: none; stroke: #888888; stroke-width: 0.55; stroke-linejoin: miter; stroke-linecap: square"/>
   </g>
   <g id="text_46">
    <!-- gain 2.32 | L=1 MSE 0.269 -->
    <g transform="translate(522.365868 206.334946) scale(0.09 -0.09)">
     <use xlink:href="#DejaVuSans-67"/>
     <use xlink:href="#DejaVuSans-61" x="63.476562"/>
     <use xlink:href="#DejaVuSans-69" x="124.755859"/>
     <use xlink:href="#DejaVuSans-6e" x="152.539062"/>
     <use xlink:href="#DejaVuSans-20" x="215.917969"/>
     <use xlink:href="#DejaVuSans-32" x="247.705078"/>
     <use xlink:href="#DejaVuSans-2e" x="311.328125"/>
     <use xlink:href="#DejaVuSans-33" x="343.115234"/>
     <use xlink:href="#DejaVuSans-32" x="406.738281"/>
     <use xlink:href="#DejaVuSans-20" x="470.361328"/>
     <use xlink:href="#DejaVuSans-7c" x="502.148438"/>
     <use xlink:href="#DejaVuSans-20" x="535.839844"/>
     <use xlink:href="#DejaVuSans-4c" x="567.626953"/>
     <use xlink:href="#DejaVuSans-3d" x="623.339844"/>
     <use xlink:href="#DejaVuSans-31" x="707.128906"/>
     <use xlink:href="#DejaVuSans-20" x="770.751953"/>
     <use xlink:href="#DejaVuSans-4d" x="802.539062"/>
     <use xlink:href="#DejaVuSans-53" x="888.818359"/>
     <use xlink:href="#DejaVuSans-45" x="952.294922"/>
     <use xlink:href="#DejaVuSans-20" x="1015.478516"/>
     <use xlink:href="#DejaVuSans-30" x="1047.265625"/>
     <use xlink:href="#DejaVuSans-2e" x="1110.888672"/>
     <use xlink:href="#DejaVuSans-32" x="1142.675781"/>
     <use xlink:href="#DejaVuSans-36" x="1206.298828"/>
     <use xlink:href="#DejaVuSans-39" x="1269.921875"/>
    </g>
   </g>
   <g id="PathCollection_6">
    <defs>
     <path id="mf3288ed14b" d="M 0 6.164414 
C 1.634822 6.164414 3.202905 5.514892 4.358899 4.358899 
C 5.514892 3.202905 6.164414 1.634822 6.164414 0 
C 6.164414 -1.634822 5.514892 -3.202905 4.358899 -4.358899 
C 3.202905 -5.514892 1.634822 -6.164414 0 -6.164414 
C -1.634822 -6.164414 -3.202905 -5.514892 -4.358899 -4.358899 
C -5.514892 -3.202905 -6.164414 -1.634822 -6.164414 0 
C -6.164414 1.634822 -5.514892 3.202905 -4.358899 4.358899 
C -3.202905 5.514892 -1.634822 6.164414 0 6.164414 
z
" style="stroke: #009e73; stroke-width: 1.4"/>
    </defs>
    <g clip-path="url(#pdda9f0da91)">
     <use xlink:href="#mf3288ed14b" x="580.189903" y="313.835464" style="fill: #ffffff; stroke: #009e73; stroke-width: 1.4"/>
     <use xlink:href="#mf3288ed14b" x="533.432886" y="320.715467" style="fill: #ffffff; stroke: #009e73; stroke-width: 1.4"/>
     <use xlink:href="#mf3288ed14b" x="582.379944" y="279.911594" style="fill: #ffffff; stroke: #009e73; stroke-width: 1.4"/>
     <use xlink:href="#mf3288ed14b" x="625.874586" y="325.829643" style="fill: #ffffff; stroke: #009e73; stroke-width: 1.4"/>
     <use xlink:href="#mf3288ed14b" x="529.978767" y="273.226046" style="fill: #ffffff; stroke: #009e73; stroke-width: 1.4"/>
     <use xlink:href="#mf3288ed14b" x="634.772189" y="279.096543" style="fill: #ffffff; stroke: #009e73; stroke-width: 1.4"/>
     <use xlink:href="#mf3288ed14b" x="560.833837" y="237.359303" style="fill: #ffffff; stroke: #009e73; stroke-width: 1.4"/>
     <use xlink:href="#mf3288ed14b" x="608.024247" y="240.086062" style="fill: #ffffff; stroke: #009e73; stroke-width: 1.4"/>
    </g>
   </g>
   <g id="text_47">
    <!-- 0 -->
    <g transform="translate(577.644903 316.042964) scale(0.08 -0.08)">
     <use xlink:href="#DejaVuSans-30"/>
    </g>
   </g>
   <g id="text_48">
    <!-- 1 -->
    <g transform="translate(530.887886 322.922967) scale(0.08 -0.08)">
     <use xlink:href="#DejaVuSans-31"/>
    </g>
   </g>
   <g id="text_49">
    <!-- 2 -->
    <g transform="translate(579.834944 282.119094) scale(0.08 -0.08)">
     <use xlink:href="#DejaVuSans-32"/>
    </g>
   </g>
   <g id="text_50">
    <!-- 3 -->
    <g transform="translate(623.329586 328.037143) scale(0.08 -0.08)">
     <use xlink:href="#DejaVuSans-33"/>
    </g>
   </g>
   <g id="text_51">
    <!-- 4 -->
    <g transform="translate(527.433767 275.433546) scale(0.08 -0.08)">
     <use xlink:href="#DejaVuSans-34"/>
    </g>
   </g>
   <g id="text_52">
    <!-- 5 -->
    <g transform="translate(632.227189 281.304043) scale(0.08 -0.08)">
     <use xlink:href="#DejaVuSans-35"/>
    </g>
   </g>
   <g id="text_53">
    <!-- 6 -->
    <g transform="translate(558.288837 239.566803) scale(0.08 -0.08)">
     <use xlink:href="#DejaVuSans-36"/>
    </g>
   </g>
   <g id="text_54">
    <!-- 7 -->
    <g transform="translate(605.479247 242.293562) scale(0.08 -0.08)">
     <use xlink:href="#DejaVuSans-37"/>
    </g>
   </g>
  </g>
  <g id="text_55">
   <!-- Cycle -->
   <g transform="translate(137.817475 49.081112) scale(0.1 -0.1)">
    <defs>
     <path id="DejaVuSans-Bold-43" d="M 4288 256 
Q 3956 84 3597 -3 
Q 3238 -91 2847 -91 
Q 1681 -91 1000 561 
Q 319 1213 319 2328 
Q 319 3447 1000 4098 
Q 1681 4750 2847 4750 
Q 3238 4750 3597 4662 
Q 3956 4575 4288 4403 
L 4288 3438 
Q 3953 3666 3628 3772 
Q 3303 3878 2944 3878 
Q 2300 3878 1931 3465 
Q 1563 3053 1563 2328 
Q 1563 1606 1931 1193 
Q 2300 781 2944 781 
Q 3303 781 3628 887 
Q 3953 994 4288 1222 
L 4288 256 
z
" transform="scale(0.015625)"/>
     <path id="DejaVuSans-Bold-79" d="M 78 3500 
L 1197 3500 
L 2138 1125 
L 2938 3500 
L 4056 3500 
L 2584 -331 
Q 2363 -916 2067 -1148 
Q 1772 -1381 1288 -1381 
L 641 -1381 
L 641 -647 
L 991 -647 
Q 1275 -647 1404 -556 
Q 1534 -466 1606 -231 
L 1638 -134 
L 78 3500 
z
" transform="scale(0.015625)"/>
     <path id="DejaVuSans-Bold-63" d="M 3366 3391 
L 3366 2478 
Q 3138 2634 2908 2709 
Q 2678 2784 2431 2784 
Q 1963 2784 1702 2511 
Q 1441 2238 1441 1747 
Q 1441 1256 1702 982 
Q 1963 709 2431 709 
Q 2694 709 2930 787 
Q 3166 866 3366 1019 
L 3366 103 
Q 3103 6 2833 -42 
Q 2563 -91 2291 -91 
Q 1344 -91 809 395 
Q 275 881 275 1747 
Q 275 2613 809 3098 
Q 1344 3584 2291 3584 
Q 2566 3584 2833 3536 
Q 3100 3488 3366 3391 
z
" transform="scale(0.015625)"/>
     <path id="DejaVuSans-Bold-6c" d="M 538 4863 
L 1656 4863 
L 1656 0 
L 538 0 
L 538 4863 
z
" transform="scale(0.015625)"/>
     <path id="DejaVuSans-Bold-65" d="M 4031 1759 
L 4031 1441 
L 1416 1441 
Q 1456 1047 1700 850 
Q 1944 653 2381 653 
Q 2734 653 3104 758 
Q 3475 863 3866 1075 
L 3866 213 
Q 3469 63 3072 -14 
Q 2675 -91 2278 -91 
Q 1328 -91 801 392 
Q 275 875 275 1747 
Q 275 2603 792 3093 
Q 1309 3584 2216 3584 
Q 3041 3584 3536 3087 
Q 4031 2591 4031 1759 
z
M 2881 2131 
Q 2881 2450 2695 2645 
Q 2509 2841 2209 2841 
Q 1884 2841 1681 2658 
Q 1478 2475 1428 2131 
L 2881 2131 
z
" transform="scale(0.015625)"/>
    </defs>
    <use xlink:href="#DejaVuSans-Bold-43"/>
    <use xlink:href="#DejaVuSans-Bold-79" x="73.388672"/>
    <use xlink:href="#DejaVuSans-Bold-63" x="138.574219"/>
    <use xlink:href="#DejaVuSans-Bold-6c" x="197.851562"/>
    <use xlink:href="#DejaVuSans-Bold-65" x="232.128906"/>
   </g>
  </g>
  <g id="text_56">
   <!-- Adjacent pair actions -->
   <g transform="translate(298.243944 49.081112) scale(0.1 -0.1)">
    <defs>
     <path id="DejaVuSans-Bold-41" d="M 3419 850 
L 1538 850 
L 1241 0 
L 31 0 
L 1759 4666 
L 3194 4666 
L 4922 0 
L 3713 0 
L 3419 850 
z
M 1838 1716 
L 3116 1716 
L 2478 3572 
L 1838 1716 
z
" transform="scale(0.015625)"/>
     <path id="DejaVuSans-Bold-64" d="M 2919 2988 
L 2919 4863 
L 4044 4863 
L 4044 0 
L 2919 0 
L 2919 506 
Q 2688 197 2409 53 
Q 2131 -91 1766 -91 
Q 1119 -91 703 423 
Q 288 938 288 1747 
Q 288 2556 703 3070 
Q 1119 3584 1766 3584 
Q 2128 3584 2408 3439 
Q 2688 3294 2919 2988 
z
M 2181 722 
Q 2541 722 2730 984 
Q 2919 1247 2919 1747 
Q 2919 2247 2730 2509 
Q 2541 2772 2181 2772 
Q 1825 2772 1636 2509 
Q 1447 2247 1447 1747 
Q 1447 1247 1636 984 
Q 1825 722 2181 722 
z
" transform="scale(0.015625)"/>
     <path id="DejaVuSans-Bold-6a" d="M 538 3500 
L 1656 3500 
L 1656 63 
Q 1656 -641 1318 -1011 
Q 981 -1381 341 -1381 
L -213 -1381 
L -213 -647 
L -19 -647 
Q 300 -647 419 -503 
Q 538 -359 538 63 
L 538 3500 
z
M 538 4863 
L 1656 4863 
L 1656 3950 
L 538 3950 
L 538 4863 
z
" transform="scale(0.015625)"/>
     <path id="DejaVuSans-Bold-61" d="M 2106 1575 
Q 1756 1575 1579 1456 
Q 1403 1338 1403 1106 
Q 1403 894 1545 773 
Q 1688 653 1941 653 
Q 2256 653 2472 879 
Q 2688 1106 2688 1447 
L 2688 1575 
L 2106 1575 
z
M 3816 1997 
L 3816 0 
L 2688 0 
L 2688 519 
Q 2463 200 2181 54 
Q 1900 -91 1497 -91 
Q 953 -91 614 226 
Q 275 544 275 1050 
Q 275 1666 698 1953 
Q 1122 2241 2028 2241 
L 2688 2241 
L 2688 2328 
Q 2688 2594 2478 2717 
Q 2269 2841 1825 2841 
Q 1466 2841 1156 2769 
Q 847 2697 581 2553 
L 581 3406 
Q 941 3494 1303 3539 
Q 1666 3584 2028 3584 
Q 2975 3584 3395 3211 
Q 3816 2838 3816 1997 
z
" transform="scale(0.015625)"/>
     <path id="DejaVuSans-Bold-6e" d="M 4056 2131 
L 4056 0 
L 2931 0 
L 2931 347 
L 2931 1631 
Q 2931 2084 2911 2256 
Q 2891 2428 2841 2509 
Q 2775 2619 2662 2680 
Q 2550 2741 2406 2741 
Q 2056 2741 1856 2470 
Q 1656 2200 1656 1722 
L 1656 0 
L 538 0 
L 538 3500 
L 1656 3500 
L 1656 2988 
Q 1909 3294 2193 3439 
Q 2478 3584 2822 3584 
Q 3428 3584 3742 3212 
Q 4056 2841 4056 2131 
z
" transform="scale(0.015625)"/>
     <path id="DejaVuSans-Bold-74" d="M 1759 4494 
L 1759 3500 
L 2913 3500 
L 2913 2700 
L 1759 2700 
L 1759 1216 
Q 1759 972 1856 886 
Q 1953 800 2241 800 
L 2816 800 
L 2816 0 
L 1856 0 
Q 1194 0 917 276 
Q 641 553 641 1216 
L 641 2700 
L 84 2700 
L 84 3500 
L 641 3500 
L 641 4494 
L 1759 4494 
z
" transform="scale(0.015625)"/>
     <path id="DejaVuSans-Bold-20" transform="scale(0.015625)"/>
     <path id="DejaVuSans-Bold-70" d="M 1656 506 
L 1656 -1331 
L 538 -1331 
L 538 3500 
L 1656 3500 
L 1656 2988 
Q 1888 3294 2169 3439 
Q 2450 3584 2816 3584 
Q 3463 3584 3878 3070 
Q 4294 2556 4294 1747 
Q 4294 938 3878 423 
Q 3463 -91 2816 -91 
Q 2450 -91 2169 54 
Q 1888 200 1656 506 
z
M 2400 2772 
Q 2041 2772 1848 2508 
Q 1656 2244 1656 1747 
Q 1656 1250 1848 986 
Q 2041 722 2400 722 
Q 2759 722 2948 984 
Q 3138 1247 3138 1747 
Q 3138 2247 2948 2509 
Q 2759 2772 2400 2772 
z
" transform="scale(0.015625)"/>
     <path id="DejaVuSans-Bold-69" d="M 538 3500 
L 1656 3500 
L 1656 0 
L 538 0 
L 538 3500 
z
M 538 4863 
L 1656 4863 
L 1656 3950 
L 538 3950 
L 538 4863 
z
" transform="scale(0.015625)"/>
     <path id="DejaVuSans-Bold-72" d="M 3138 2547 
Q 2991 2616 2845 2648 
Q 2700 2681 2553 2681 
Q 2122 2681 1889 2404 
Q 1656 2128 1656 1613 
L 1656 0 
L 538 0 
L 538 3500 
L 1656 3500 
L 1656 2925 
Q 1872 3269 2151 3426 
Q 2431 3584 2822 3584 
Q 2878 3584 2943 3579 
Q 3009 3575 3134 3559 
L 3138 2547 
z
" transform="scale(0.015625)"/>
     <path id="DejaVuSans-Bold-6f" d="M 2203 2784 
Q 1831 2784 1636 2517 
Q 1441 2250 1441 1747 
Q 1441 1244 1636 976 
Q 1831 709 2203 709 
Q 2569 709 2762 976 
Q 2956 1244 2956 1747 
Q 2956 2250 2762 2517 
Q 2569 2784 2203 2784 
z
M 2203 3584 
Q 3106 3584 3614 3096 
Q 4122 2609 4122 1747 
Q 4122 884 3614 396 
Q 3106 -91 2203 -91 
Q 1297 -91 786 396 
Q 275 884 275 1747 
Q 275 2609 786 3096 
Q 1297 3584 2203 3584 
z
" transform="scale(0.015625)"/>
     <path id="DejaVuSans-Bold-73" d="M 3272 3391 
L 3272 2541 
Q 2913 2691 2578 2766 
Q 2244 2841 1947 2841 
Q 1628 2841 1473 2761 
Q 1319 2681 1319 2516 
Q 1319 2381 1436 2309 
Q 1553 2238 1856 2203 
L 2053 2175 
Q 2913 2066 3209 1816 
Q 3506 1566 3506 1031 
Q 3506 472 3093 190 
Q 2681 -91 1863 -91 
Q 1516 -91 1145 -36 
Q 775 19 384 128 
L 384 978 
Q 719 816 1070 734 
Q 1422 653 1784 653 
Q 2113 653 2278 743 
Q 2444 834 2444 1013 
Q 2444 1163 2330 1236 
Q 2216 1309 1875 1350 
L 1678 1375 
Q 931 1469 631 1722 
Q 331 1975 331 2491 
Q 331 3047 712 3315 
Q 1094 3584 1881 3584 
Q 2191 3584 2531 3537 
Q 2872 3491 3272 3391 
z
" transform="scale(0.015625)"/>
    </defs>
    <use xlink:href="#DejaVuSans-Bold-41"/>
    <use xlink:href="#DejaVuSans-Bold-64" x="77.392578"/>
    <use xlink:href="#DejaVuSans-Bold-6a" x="148.974609"/>
    <use xlink:href="#DejaVuSans-Bold-61" x="183.251953"/>
    <use xlink:href="#DejaVuSans-Bold-63" x="250.732422"/>
    <use xlink:href="#DejaVuSans-Bold-65" x="310.009766"/>
    <use xlink:href="#DejaVuSans-Bold-6e" x="377.832031"/>
    <use xlink:href="#DejaVuSans-Bold-74" x="449.023438"/>
    <use xlink:href="#DejaVuSans-Bold-20" x="496.826172"/>
    <use xlink:href="#DejaVuSans-Bold-70" x="531.640625"/>
    <use xlink:href="#DejaVuSans-Bold-61" x="603.222656"/>
    <use xlink:href="#DejaVuSans-Bold-69" x="670.703125"/>
    <use xlink:href="#DejaVuSans-Bold-72" x="704.980469"/>
    <use xlink:href="#DejaVuSans-Bold-20" x="754.296875"/>
    <use xlink:href="#DejaVuSans-Bold-61" x="789.111328"/>
    <use xlink:href="#DejaVuSans-Bold-63" x="856.591797"/>
    <use xlink:href="#DejaVuSans-Bold-74" x="915.869141"/>
    <use xlink:href="#DejaVuSans-Bold-69" x="963.671875"/>
    <use xlink:href="#DejaVuSans-Bold-6f" x="997.949219"/>
    <use xlink:href="#DejaVuSans-Bold-6e" x="1066.650391"/>
    <use xlink:href="#DejaVuSans-Bold-73" x="1137.841797"/>
   </g>
  </g>
  <g id="text_57">
   <!-- All-pair actions -->
   <g transform="translate(520.749319 49.120175) scale(0.1 -0.1)">
    <defs>
     <path id="DejaVuSans-Bold-2d" d="M 347 2297 
L 2309 2297 
L 2309 1388 
L 347 1388 
L 347 2297 
z
" transform="scale(0.015625)"/>
    </defs>
    <use xlink:href="#DejaVuSans-Bold-41"/>
    <use xlink:href="#DejaVuSans-Bold-6c" x="77.392578"/>
    <use xlink:href="#DejaVuSans-Bold-6c" x="111.669922"/>
    <use xlink:href="#DejaVuSans-Bold-2d" x="145.947266"/>
    <use xlink:href="#DejaVuSans-Bold-70" x="187.451172"/>
    <use xlink:href="#DejaVuSans-Bold-61" x="259.033203"/>
    <use xlink:href="#DejaVuSans-Bold-69" x="326.513672"/>
    <use xlink:href="#DejaVuSans-Bold-72" x="360.791016"/>
    <use xlink:href="#DejaVuSans-Bold-20" x="410.107422"/>
    <use xlink:href="#DejaVuSans-Bold-61" x="444.921875"/>
    <use xlink:href="#DejaVuSans-Bold-63" x="512.402344"/>
    <use xlink:href="#DejaVuSans-Bold-74" x="571.679688"/>
    <use xlink:href="#DejaVuSans-Bold-69" x="619.482422"/>
    <use xlink:href="#DejaVuSans-Bold-6f" x="653.759766"/>
    <use xlink:href="#DejaVuSans-Bold-6e" x="722.460938"/>
    <use xlink:href="#DejaVuSans-Bold-73" x="793.652344"/>
   </g>
  </g>
  <g id="text_58">
   <!-- transition family -->
   <g transform="translate(14.038594 179.158359) rotate(-90) scale(0.09 -0.09)">
    <defs>
     <path id="DejaVuSans-Bold-66" d="M 2841 4863 
L 2841 4128 
L 2222 4128 
Q 1984 4128 1890 4042 
Q 1797 3956 1797 3744 
L 1797 3500 
L 2753 3500 
L 2753 2700 
L 1797 2700 
L 1797 0 
L 678 0 
L 678 2700 
L 122 2700 
L 122 3500 
L 678 3500 
L 678 3744 
Q 678 4316 997 4589 
Q 1316 4863 1984 4863 
L 2841 4863 
z
" transform="scale(0.015625)"/>
     <path id="DejaVuSans-Bold-6d" d="M 3781 2919 
Q 3994 3244 4286 3414 
Q 4578 3584 4928 3584 
Q 5531 3584 5847 3212 
Q 6163 2841 6163 2131 
L 6163 0 
L 5038 0 
L 5038 1825 
Q 5041 1866 5042 1909 
Q 5044 1953 5044 2034 
Q 5044 2406 4934 2573 
Q 4825 2741 4581 2741 
Q 4263 2741 4089 2478 
Q 3916 2216 3909 1719 
L 3909 0 
L 2784 0 
L 2784 1825 
Q 2784 2406 2684 2573 
Q 2584 2741 2328 2741 
Q 2006 2741 1831 2477 
Q 1656 2213 1656 1722 
L 1656 0 
L 531 0 
L 531 3500 
L 1656 3500 
L 1656 2988 
Q 1863 3284 2130 3434 
Q 2397 3584 2719 3584 
Q 3081 3584 3359 3409 
Q 3638 3234 3781 2919 
z
" transform="scale(0.015625)"/>
    </defs>
    <use xlink:href="#DejaVuSans-Bold-74"/>
    <use xlink:href="#DejaVuSans-Bold-72" x="47.802734"/>
    <use xlink:href="#DejaVuSans-Bold-61" x="97.119141"/>
    <use xlink:href="#DejaVuSans-Bold-6e" x="164.599609"/>
    <use xlink:href="#DejaVuSans-Bold-73" x="235.791016"/>
    <use xlink:href="#DejaVuSans-Bold-69" x="295.3125"/>
    <use xlink:href="#DejaVuSans-Bold-74" x="329.589844"/>
    <use xlink:href="#DejaVuSans-Bold-69" x="377.392578"/>
    <use xlink:href="#DejaVuSans-Bold-6f" x="411.669922"/>
    <use xlink:href="#DejaVuSans-Bold-6e" x="480.371094"/>
    <use xlink:href="#DejaVuSans-Bold-20" x="551.5625"/>
    <use xlink:href="#DejaVuSans-Bold-66" x="586.376953"/>
    <use xlink:href="#DejaVuSans-Bold-61" x="629.882812"/>
    <use xlink:href="#DejaVuSans-Bold-6d" x="697.363281"/>
    <use xlink:href="#DejaVuSans-Bold-69" x="801.5625"/>
    <use xlink:href="#DejaVuSans-Bold-6c" x="835.839844"/>
    <use xlink:href="#DejaVuSans-Bold-79" x="870.117188"/>
   </g>
  </g>
  <g id="text_59">
   <!-- m=2 latent action -->
   <g transform="translate(14.07375 324.482062) rotate(-90) scale(0.09 -0.09)">
    <defs>
     <path id="DejaVuSans-Bold-3d" d="M 678 3084 
L 4684 3084 
L 4684 2350 
L 678 2350 
L 678 3084 
z
M 678 1663 
L 4684 1663 
L 4684 922 
L 678 922 
L 678 1663 
z
" transform="scale(0.015625)"/>
     <path id="DejaVuSans-Bold-32" d="M 1844 884 
L 3897 884 
L 3897 0 
L 506 0 
L 506 884 
L 2209 2388 
Q 2438 2594 2547 2791 
Q 2656 2988 2656 3200 
Q 2656 3528 2436 3728 
Q 2216 3928 1850 3928 
Q 1569 3928 1234 3808 
Q 900 3688 519 3450 
L 519 4475 
Q 925 4609 1322 4679 
Q 1719 4750 2100 4750 
Q 2938 4750 3402 4381 
Q 3866 4013 3866 3353 
Q 3866 2972 3669 2642 
Q 3472 2313 2841 1759 
L 1844 884 
z
" transform="scale(0.015625)"/>
    </defs>
    <use xlink:href="#DejaVuSans-Bold-6d"/>
    <use xlink:href="#DejaVuSans-Bold-3d" x="104.199219"/>
    <use xlink:href="#DejaVuSans-Bold-32" x="187.988281"/>
    <use xlink:href="#DejaVuSans-Bold-20" x="257.568359"/>
    <use xlink:href="#DejaVuSans-Bold-6c" x="292.382812"/>
    <use xlink:href="#DejaVuSans-Bold-61" x="326.660156"/>
    <use xlink:href="#DejaVuSans-Bold-74" x="394.140625"/>
    <use xlink:href="#DejaVuSans-Bold-65" x="441.943359"/>
    <use xlink:href="#DejaVuSans-Bold-6e" x="509.765625"/>
    <use xlink:href="#DejaVuSans-Bold-74" x="580.957031"/>
    <use xlink:href="#DejaVuSans-Bold-20" x="628.759766"/>
    <use xlink:href="#DejaVuSans-Bold-61" x="663.574219"/>
    <use xlink:href="#DejaVuSans-Bold-63" x="731.054688"/>
    <use xlink:href="#DejaVuSans-Bold-74" x="790.332031"/>
    <use xlink:href="#DejaVuSans-Bold-69" x="838.134766"/>
    <use xlink:href="#DejaVuSans-Bold-6f" x="872.412109"/>
    <use xlink:href="#DejaVuSans-Bold-6e" x="941.113281"/>
   </g>
  </g>
  <g id="text_60">
   <!-- Same states, different transition families, different prediction error -->
   <g transform="translate(107.889788 16.318125) scale(0.12 -0.12)">
    <defs>
     <path id="DejaVuSans-Bold-53" d="M 3834 4519 
L 3834 3531 
Q 3450 3703 3084 3790 
Q 2719 3878 2394 3878 
Q 1963 3878 1756 3759 
Q 1550 3641 1550 3391 
Q 1550 3203 1689 3098 
Q 1828 2994 2194 2919 
L 2706 2816 
Q 3484 2659 3812 2340 
Q 4141 2022 4141 1434 
Q 4141 663 3683 286 
Q 3225 -91 2284 -91 
Q 1841 -91 1394 -6 
Q 947 78 500 244 
L 500 1259 
Q 947 1022 1364 901 
Q 1781 781 2169 781 
Q 2563 781 2772 912 
Q 2981 1044 2981 1288 
Q 2981 1506 2839 1625 
Q 2697 1744 2272 1838 
L 1806 1941 
Q 1106 2091 782 2419 
Q 459 2747 459 3303 
Q 459 4000 909 4375 
Q 1359 4750 2203 4750 
Q 2588 4750 2994 4692 
Q 3400 4634 3834 4519 
z
" transform="scale(0.015625)"/>
     <path id="DejaVuSans-Bold-2c" d="M 653 1209 
L 1778 1209 
L 1778 256 
L 1006 -909 
L 341 -909 
L 653 256 
L 653 1209 
z
" transform="scale(0.015625)"/>
    </defs>
    <use xlink:href="#DejaVuSans-Bold-53"/>
    <use xlink:href="#DejaVuSans-Bold-61" x="72.021484"/>
    <use xlink:href="#DejaVuSans-Bold-6d" x="139.501953"/>
    <use xlink:href="#DejaVuSans-Bold-65" x="243.701172"/>
    <use xlink:href="#DejaVuSans-Bold-20" x="311.523438"/>
    <use xlink:href="#DejaVuSans-Bold-73" x="346.337891"/>
    <use xlink:href="#DejaVuSans-Bold-74" x="405.859375"/>
    <use xlink:href="#DejaVuSans-Bold-61" x="453.662109"/>
    <use xlink:href="#DejaVuSans-Bold-74" x="521.142578"/>
    <use xlink:href="#DejaVuSans-Bold-65" x="568.945312"/>
    <use xlink:href="#DejaVuSans-Bold-73" x="636.767578"/>
    <use xlink:href="#DejaVuSans-Bold-2c" x="696.289062"/>
    <use xlink:href="#DejaVuSans-Bold-20" x="734.277344"/>
    <use xlink:href="#DejaVuSans-Bold-64" x="769.091797"/>
    <use xlink:href="#DejaVuSans-Bold-69" x="840.673828"/>
    <use xlink:href="#DejaVuSans-Bold-66" x="874.951172"/>
    <use xlink:href="#DejaVuSans-Bold-66" x="918.457031"/>
    <use xlink:href="#DejaVuSans-Bold-65" x="961.962891"/>
    <use xlink:href="#DejaVuSans-Bold-72" x="1029.785156"/>
    <use xlink:href="#DejaVuSans-Bold-65" x="1079.101562"/>
    <use xlink:href="#DejaVuSans-Bold-6e" x="1146.923828"/>
    <use xlink:href="#DejaVuSans-Bold-74" x="1218.115234"/>
    <use xlink:href="#DejaVuSans-Bold-20" x="1265.917969"/>
    <use xlink:href="#DejaVuSans-Bold-74" x="1300.732422"/>
    <use xlink:href="#DejaVuSans-Bold-72" x="1348.535156"/>
    <use xlink:href="#DejaVuSans-Bold-61" x="1397.851562"/>
    <use xlink:href="#DejaVuSans-Bold-6e" x="1465.332031"/>
    <use xlink:href="#DejaVuSans-Bold-73" x="1536.523438"/>
    <use xlink:href="#DejaVuSans-Bold-69" x="1596.044922"/>
    <use xlink:href="#DejaVuSans-Bold-74" x="1630.322266"/>
    <use xlink:href="#DejaVuSans-Bold-69" x="1678.125"/>
    <use xlink:href="#DejaVuSans-Bold-6f" x="1712.402344"/>
    <use xlink:href="#DejaVuSans-Bold-6e" x="1781.103516"/>
    <use xlink:href="#DejaVuSans-Bold-20" x="1852.294922"/>
    <use xlink:href="#DejaVuSans-Bold-66" x="1887.109375"/>
    <use xlink:href="#DejaVuSans-Bold-61" x="1930.615234"/>
    <use xlink:href="#DejaVuSans-Bold-6d" x="1998.095703"/>
    <use xlink:href="#DejaVuSans-Bold-69" x="2102.294922"/>
    <use xlink:href="#DejaVuSans-Bold-6c" x="2136.572266"/>
    <use xlink:href="#DejaVuSans-Bold-69" x="2170.849609"/>
    <use xlink:href="#DejaVuSans-Bold-65" x="2205.126953"/>
    <use xlink:href="#DejaVuSans-Bold-73" x="2272.949219"/>
    <use xlink:href="#DejaVuSans-Bold-2c" x="2332.470703"/>
    <use xlink:href="#DejaVuSans-Bold-20" x="2370.458984"/>
    <use xlink:href="#DejaVuSans-Bold-64" x="2405.273438"/>
    <use xlink:href="#DejaVuSans-Bold-69" x="2476.855469"/>
    <use xlink:href="#DejaVuSans-Bold-66" x="2511.132812"/>
    <use xlink:href="#DejaVuSans-Bold-66" x="2554.638672"/>
    <use xlink:href="#DejaVuSans-Bold-65" x="2598.144531"/>
    <use xlink:href="#DejaVuSans-Bold-72" x="2665.966797"/>
    <use xlink:href="#DejaVuSans-Bold-65" x="2715.283203"/>
    <use xlink:href="#DejaVuSans-Bold-6e" x="2783.105469"/>
    <use xlink:href="#DejaVuSans-Bold-74" x="2854.296875"/>
    <use xlink:href="#DejaVuSans-Bold-20" x="2902.099609"/>
    <use xlink:href="#DejaVuSans-Bold-70" x="2936.914062"/>
    <use xlink:href="#DejaVuSans-Bold-72" x="3008.496094"/>
    <use xlink:href="#DejaVuSans-Bold-65" x="3057.8125"/>
    <use xlink:href="#DejaVuSans-Bold-64" x="3125.634766"/>
    <use xlink:href="#DejaVuSans-Bold-69" x="3197.216797"/>
    <use xlink:href="#DejaVuSans-Bold-63" x="3231.494141"/>
    <use xlink:href="#DejaVuSans-Bold-74" x="3290.771484"/>
    <use xlink:href="#DejaVuSans-Bold-69" x="3338.574219"/>
    <use xlink:href="#DejaVuSans-Bold-6f" x="3372.851562"/>
    <use xlink:href="#DejaVuSans-Bold-6e" x="3441.552734"/>
    <use xlink:href="#DejaVuSans-Bold-20" x="3512.744141"/>
    <use xlink:href="#DejaVuSans-Bold-65" x="3547.558594"/>
    <use xlink:href="#DejaVuSans-Bold-72" x="3615.380859"/>
    <use xlink:href="#DejaVuSans-Bold-72" x="3664.697266"/>
    <use xlink:href="#DejaVuSans-Bold-6f" x="3714.013672"/>
    <use xlink:href="#DejaVuSans-Bold-72" x="3782.714844"/>
   </g>
  </g>
 </g>
 <defs>
  <clipPath id="pdf865a3754">
   <rect x="83.838051" y="61.146" width="100.020593" height="102.613719"/>
  </clipPath>
  <clipPath id="p3cc5de3973">
   <rect x="274.431478" y="88.825443" width="167.36087" height="47.254834"/>
  </clipPath>
  <clipPath id="p90bbfda26f">
   <rect x="532.365181" y="61.146" width="100.020593" height="102.613719"/>
  </clipPath>
  <clipPath id="peef3ac9776">
   <rect x="62.58882" y="210.334946" width="142.519054" height="142.519054"/>
  </clipPath>
  <clipPath id="pd59930f994">
   <rect x="286.852385" y="210.334946" width="142.519054" height="142.519054"/>
  </clipPath>
  <clipPath id="pdda9f0da91">
   <rect x="511.115951" y="210.334946" width="142.519054" height="142.519054"/>
  </clipPath>
 </defs>
</svg>
